<?xml version="1.0" standalone="no"?>
<!DOCTYPE svg PUBLIC "-//W3C//DTD SVG 20010904//EN"
 "http://www.w3.org/TR/2001/REC-SVG-20010904/DTD/svg10.dtd">
<svg version="1.0" xmlns="http://www.w3.org/2000/svg"
 width="797.000000pt" height="734.000000pt" viewBox="0 0 797.000000 734.000000"
 preserveAspectRatio="xMidYMid meet">

<g transform="translate(0.000000,734.000000) scale(0.100000,-0.100000)"
fill="#000000" stroke="none">
<path d="M1379 7322 c-64 -43 -173 -175 -202 -244 -8 -19 -26 -47 -41 -64 -41
-47 -45 -51 -65 -87 -10 -19 -22 -56 -25 -82 -5 -36 -18 -61 -49 -99 -22 -28
-42 -52 -43 -54 -1 -1 -59 -12 -130 -23 -71 -11 -154 -24 -184 -29 -67 -11
-203 -34 -330 -54 -52 -9 -131 -22 -175 -31 -44 -8 -92 -14 -107 -15 -26 0
-28 -3 -28 -46 l0 -46 32 6 c17 3 124 19 237 36 113 16 312 45 441 64 273 41
275 41 239 -40 -12 -27 -28 -80 -36 -119 -15 -76 -20 -97 -24 -105 -1 -3 -3
-23 -4 -45 -1 -36 -12 -105 -20 -138 -6 -24 -17 -57 -20 -57 -5 0 -405 -51
-470 -60 -38 -6 -98 -13 -133 -16 l-63 -7 50 -28 c53 -31 77 -36 83 -18 2 5
15 12 28 13 14 2 34 6 45 9 11 4 61 11 110 17 50 6 99 12 110 14 11 2 67 8
125 15 156 18 170 21 170 32 0 16 40 69 52 69 7 0 9 -15 5 -40 -6 -44 8 -53
37 -25 13 14 16 14 24 -1 7 -13 13 -14 29 -6 24 13 30 9 76 -52 33 -43 35 -50
21 -64 -9 -8 -14 -25 -11 -39 3 -18 1 -21 -8 -13 -19 15 -25 -10 -15 -56 6
-26 5 -43 -2 -52 -14 -17 11 -37 26 -22 6 6 18 10 27 10 13 0 19 12 24 50 4
28 11 50 17 50 7 0 8 -20 3 -56 -6 -50 -3 -63 25 -120 23 -47 60 -187 60 -230
0 -1 8 -1 17 0 10 0 22 -9 27 -21 6 -12 18 -21 28 -20 24 2 23 14 -2 22 -24 8
-56 52 -45 63 4 4 10 1 12 -5 3 -7 9 -13 14 -13 4 0 -3 16 -16 36 -29 42 -33
89 -9 98 22 9 25 5 35 -51 10 -54 29 -81 29 -42 0 13 5 31 10 39 7 11 10 5 11
-25 1 -22 1 -45 0 -52 -1 -6 3 -14 9 -18 6 -4 10 5 10 21 0 23 2 25 16 13 15
-12 16 -11 9 11 -7 23 -7 24 10 10 17 -14 18 -13 12 19 -4 19 -3 39 2 45 5 6
16 37 24 68 15 57 49 113 61 101 3 -3 6 1 6 9 0 9 24 34 54 56 30 23 66 52 80
64 81 73 123 104 174 129 31 16 63 29 70 29 6 0 12 3 12 8 0 9 186 8 228 -2
21 -5 32 -4 32 3 0 7 9 9 23 6 12 -3 33 -7 47 -9 14 -1 31 -5 37 -9 6 -4 13
-2 15 3 4 12 94 -16 104 -31 3 -5 14 -9 24 -9 10 0 22 -5 26 -11 4 -8 -1 -9
-17 -5 -26 8 -27 9 39 -44 18 -14 32 -31 32 -38 0 -7 5 -10 10 -7 6 3 10 -3
10 -14 0 -12 6 -21 13 -21 12 0 47 -34 47 -45 0 -3 -14 2 -31 10 -80 42 -319
75 -319 44 0 -6 8 -8 18 -5 35 12 236 -24 221 -38 -2 -3 -83 -7 -179 -10 -204
-7 -243 -23 -133 -55 23 -6 49 -19 58 -29 67 -73 115 -116 148 -133 20 -11 37
-22 37 -25 0 -11 -28 -33 -34 -27 -3 4 -6 -4 -6 -16 0 -25 -28 -40 -40 -22 -5
9 -9 8 -14 -5 -8 -20 42 -74 69 -74 8 0 23 -9 32 -19 9 -11 22 -17 29 -14 8 3
14 0 14 -7 0 -6 5 -8 10 -5 6 3 10 -1 10 -9 0 -8 5 -18 10 -21 17 -11 71 -15
65 -5 -3 4 29 8 70 7 51 -1 78 2 83 10 4 7 17 14 27 17 47 10 65 19 70 37 3
10 31 30 61 45 36 17 54 32 54 45 0 20 15 32 43 34 10 1 23 8 28 16 8 12 10
12 19 -1 9 -13 10 -13 11 0 1 8 1 19 0 23 -1 5 7 11 18 14 13 3 17 11 14 24
-3 10 0 19 6 19 6 0 11 -5 11 -11 0 -8 5 -8 15 1 8 7 15 18 15 24 0 6 -5 4
-11 -4 -9 -13 -10 -13 -5 0 3 8 9 23 12 33 10 27 25 20 18 -9 -5 -19 -4 -25 5
-20 6 4 11 3 11 -3 0 -5 -5 -11 -12 -13 -23 -8 4 -30 29 -23 20 5 24 3 20 -9
-4 -10 -1 -16 9 -16 11 0 14 -5 9 -17 -4 -10 -8 -23 -8 -30 0 -7 -6 -14 -14
-17 -8 -3 -12 -18 -11 -34 1 -15 -1 -33 -5 -39 -4 -6 -3 -14 1 -17 5 -3 4 -27
-3 -53 -19 -72 -29 -173 -17 -173 5 0 10 -15 11 -32 2 -78 8 -174 11 -183 1
-5 2 -13 1 -18 -1 -4 6 -24 15 -45 9 -20 16 -58 15 -84 -2 -37 2 -49 17 -57
21 -11 46 -83 37 -110 -3 -10 -17 -21 -30 -24 -20 -3 -27 1 -31 19 -3 12 -3
28 2 35 4 8 3 9 -5 5 -7 -5 -19 0 -29 12 -15 17 -19 18 -31 4 -13 -13 -15 -13
-21 3 -6 18 -7 18 -15 -1 -4 -10 -7 -24 -6 -30 2 -18 -50 -33 -79 -22 -27 10
-97 2 -106 -13 -8 -14 -52 -11 -79 7 -22 14 -24 14 -36 -8 -16 -29 -35 -49
-42 -41 -3 3 -13 -11 -21 -31 -11 -26 -13 -55 -9 -106 6 -71 6 -71 -18 -68
-13 2 -30 7 -38 12 -8 5 -51 15 -95 22 -45 7 -103 18 -131 25 -27 6 -59 13
-70 15 -11 2 -29 5 -40 8 -11 2 -35 5 -53 5 -25 1 -43 11 -70 39 -20 20 -37
43 -37 51 0 8 -8 15 -17 17 -10 1 -18 -2 -18 -7 0 -5 -5 -9 -11 -9 -5 0 -8 4
-5 8 2 4 1 14 -4 21 -6 10 -9 8 -15 -8 -3 -11 -11 -21 -17 -21 -6 0 -8 -3 -5
-7 4 -3 -10 -17 -32 -29 -31 -19 -37 -28 -34 -48 4 -20 13 -25 49 -31 23 -3
58 -3 76 0 27 5 43 -1 85 -29 39 -26 53 -31 57 -20 8 20 39 17 133 -12 50 -16
83 -32 83 -40 0 -13 15 -18 48 -17 6 1 12 -9 12 -21 0 -24 -7 -27 -76 -29 -30
-1 -40 -5 -37 -14 3 -7 10 -13 16 -13 5 0 24 -15 42 -33 18 -18 37 -31 43 -29
11 3 52 -36 52 -50 0 -4 10 -8 23 -8 12 0 31 -7 41 -15 11 -8 25 -15 32 -15 7
0 29 -16 50 -35 23 -22 31 -35 22 -35 -9 0 -21 7 -28 15 -7 9 -29 15 -51 15
-21 0 -42 6 -46 13 -9 13 -38 19 -93 17 -45 -1 -55 -12 -30 -35 11 -10 20 -23
20 -29 1 -11 67 -46 87 -46 6 0 16 -7 24 -16 7 -8 21 -13 31 -11 12 4 18 0 19
-11 0 -11 2 -12 6 -4 9 23 23 12 17 -13 -5 -20 -3 -25 14 -25 19 0 38 -27 27
-38 -3 -3 -5 0 -5 8 0 10 -3 10 -15 0 -12 -10 -15 -10 -15 1 0 10 -3 10 -12 1
-8 -8 -8 -15 2 -27 10 -12 10 -15 -4 -15 -9 0 -16 -7 -16 -15 0 -20 -17 -19
-29 3 -8 13 -9 7 -4 -20 5 -34 3 -38 -15 -38 -11 0 -23 6 -25 13 -3 7 -6 5 -6
-5 -1 -20 -40 -33 -71 -25 -11 3 -20 0 -20 -5 0 -6 -8 -4 -17 3 -15 12 -16 12
-10 -5 6 -16 5 -17 -8 -6 -13 11 -16 11 -13 0 2 -8 -6 -16 -17 -18 -11 -2 -29
-11 -39 -21 -18 -15 -19 -15 -13 2 4 11 3 16 -4 12 -6 -4 -8 -13 -5 -20 3 -8
-3 -19 -12 -27 -11 -9 -14 -9 -8 -1 5 9 2 11 -8 7 -8 -3 -12 -12 -10 -19 3 -7
-4 -18 -15 -25 -18 -9 -25 -7 -46 16 -14 15 -25 22 -25 16 0 -7 -7 -9 -17 -5
-11 4 -14 3 -9 -5 4 -7 1 -12 -6 -13 -7 0 -21 -2 -30 -4 -10 -2 -18 1 -18 7 0
6 -6 5 -15 -2 -8 -7 -15 -9 -15 -4 -1 30 -17 34 -59 15 -44 -19 -112 -19 -137
1 -6 4 -19 6 -28 2 -9 -3 -16 -1 -16 4 0 6 -9 14 -21 17 -33 11 -106 76 -176
158 -17 20 -38 37 -47 37 -20 0 -21 -16 -1 -24 8 -3 15 -11 15 -17 0 -7 -8 -5
-20 6 -15 14 -23 16 -32 7 -8 -8 -7 -13 5 -18 24 -9 21 -23 -5 -21 -11 1 -23
9 -26 19 -7 28 -22 21 -23 -9 0 -26 -1 -26 -9 -7 -16 40 -30 37 -30 -5 0 -22
-5 -43 -11 -47 -9 -5 -10 1 -5 22 4 16 4 26 0 22 -4 -4 -14 -2 -22 5 -13 10
-15 9 -9 -5 9 -25 -8 -22 -35 5 -13 13 -27 24 -31 24 -12 3 -47 49 -47 62 0 6
-4 11 -8 11 -5 0 -21 23 -36 50 -15 28 -29 50 -31 50 -2 0 23 -57 54 -127 32
-71 73 -175 92 -233 19 -58 37 -106 42 -108 4 -2 7 -12 7 -22 0 -9 7 -34 15
-54 8 -19 14 -39 13 -43 -2 -5 7 -18 20 -31 13 -13 21 -30 18 -38 -3 -8 -2
-14 3 -14 4 0 14 -19 21 -42 8 -24 19 -50 26 -58 24 -30 44 -79 38 -94 -3 -9
1 -27 10 -41 9 -13 25 -58 37 -100 27 -100 20 -186 -22 -248 -16 -23 -29 -45
-29 -49 0 -10 89 -9 112 0 31 13 117 92 140 130 12 20 28 43 35 50 45 46 113
175 113 214 0 23 28 68 43 68 13 0 2 -162 -13 -190 -6 -12 -10 -29 -8 -38 3
-12 9 -8 23 18 l19 35 14 -60 c12 -45 17 -55 23 -40 8 22 8 21 28 -51 16 -61
14 -104 -5 -104 -14 0 -16 -10 -12 -62 4 -51 9 -64 29 -77 13 -9 49 -38 81
-64 61 -50 67 -49 43 10 -23 54 -12 50 29 -10 48 -69 65 -119 59 -173 -3 -31
5 -70 31 -146 30 -88 37 -127 46 -244 5 -76 15 -173 21 -214 16 -115 7 -284
-20 -343 -12 -26 -29 -89 -38 -138 -18 -106 -13 -117 55 -126 30 -4 59 2 114
23 40 15 89 31 108 34 38 6 37 2 24 94 -6 44 -5 49 10 43 10 -4 15 -3 11 3 -3
6 -2 10 3 10 5 0 17 -25 27 -55 16 -52 19 -55 48 -54 18 1 43 4 57 8 25 7 25
7 -7 14 -27 5 -33 13 -47 54 -22 69 -31 143 -17 143 6 0 11 8 11 17 0 33 22
-5 52 -89 17 -46 32 -93 35 -104 4 -19 14 -22 84 -28 43 -4 93 -11 110 -16 38
-11 57 -3 33 14 -20 15 -11 36 17 36 16 0 19 -7 19 -40 0 -28 4 -40 15 -41 8
-1 21 -2 28 -3 7 -1 14 17 17 44 4 38 9 46 29 48 17 3 30 -4 42 -19 15 -20 20
-22 44 -11 14 7 36 12 47 12 12 0 34 12 49 26 20 19 33 24 49 19 13 -4 19 -12
16 -21 -3 -8 -9 -20 -12 -28 -10 -25 50 -3 61 22 12 26 34 29 41 5 17 -55 44
-69 44 -24 0 26 3 30 18 22 40 -20 89 -34 120 -35 31 -1 41 -9 24 -20 -5 -3
-32 1 -60 8 -50 14 -50 14 -57 -11 -4 -18 3 -34 30 -65 19 -23 35 -51 35 -62
0 -12 7 -29 14 -38 12 -17 15 -16 41 8 35 32 40 24 49 -68 8 -91 -2 -110 -90
-170 -51 -35 -76 -59 -89 -87 -13 -30 -24 -40 -49 -44 -17 -3 -67 -22 -110
-43 -64 -31 -88 -49 -122 -94 -25 -31 -63 -65 -88 -78 -24 -13 -46 -32 -49
-43 -3 -10 -12 -19 -21 -19 -9 0 -16 -4 -16 -10 0 -5 -9 -10 -20 -10 -27 0
-46 -36 -29 -56 7 -9 21 -13 31 -10 11 2 22 -1 24 -9 6 -14 -39 -109 -56 -120
-5 -3 -24 2 -40 12 -27 15 -33 16 -53 3 -42 -27 -78 -42 -84 -36 -4 3 8 25 26
49 17 23 40 61 51 85 22 48 68 113 78 109 4 -1 8 3 10 8 8 23 41 49 99 77 77
36 132 98 87 98 -9 0 -12 -5 -8 -12 5 -7 3 -8 -5 -3 -8 4 -23 -3 -39 -18 -36
-32 -105 -78 -110 -72 -3 2 1 11 8 20 11 13 10 14 -4 9 -9 -3 -16 -10 -16 -15
0 -5 -7 -9 -15 -9 -8 0 -15 -5 -15 -10 0 -6 -4 -9 -8 -8 -4 2 -36 -29 -70 -69
-42 -49 -71 -73 -92 -78 -16 -4 -30 -10 -30 -15 0 -11 -43 -21 -53 -11 -8 8
18 33 75 72 27 19 72 95 60 103 -4 2 -37 -17 -73 -44 -62 -48 -99 -62 -99 -38
0 6 33 43 74 82 49 48 84 92 105 134 l32 63 -48 -46 c-26 -26 -68 -67 -93 -91
-88 -85 -93 -40 -7 61 31 37 57 71 57 76 0 23 -40 5 -69 -31 -44 -55 -66 -54
-58 4 5 34 3 47 -11 58 -22 19 -60 29 -68 17 -8 -14 -82 -11 -87 4 -4 12 -117
-95 -117 -112 0 -12 28 -22 32 -12 2 4 21 0 43 -10 22 -10 34 -19 28 -19 -18
0 -16 -29 2 -36 8 -4 15 -10 15 -16 0 -5 -6 -6 -12 -3 -7 4 -5 0 5 -8 9 -8 17
-19 17 -26 0 -6 4 -11 8 -11 15 0 13 -89 -2 -118 -19 -37 -92 -86 -150 -101
-31 -8 -45 -17 -49 -33 -8 -30 0 -40 31 -36 14 2 27 -3 29 -10 3 -7 -1 -10 -9
-7 -11 5 -14 -1 -10 -25 4 -26 1 -30 -19 -31 -22 0 -23 -1 -4 -9 13 -6 15 -9
5 -9 -13 -1 -13 -3 0 -12 13 -9 12 -10 -2 -5 -22 7 -50 -3 -42 -15 6 -11 -35
-48 -53 -49 -7 0 -13 -4 -13 -9 0 -5 -9 -11 -21 -14 -12 -3 -18 -10 -14 -16 4
-8 172 -11 538 -11 l532 0 39 41 c43 44 135 101 179 113 17 4 25 11 21 18 -4
6 -3 8 2 5 5 -3 49 8 97 24 97 33 335 95 499 130 106 23 107 23 113 56 7 37
56 83 90 83 25 0 57 36 70 80 10 35 24 50 46 50 15 0 17 4 10 22 -25 64 -58
123 -71 127 -56 14 -123 11 -198 -9 -46 -12 -85 -20 -88 -18 -7 8 185 59 244
65 56 6 72 23 22 23 -17 0 -63 -7 -103 -14 -40 -8 -133 -24 -207 -36 -74 -12
-184 -30 -245 -41 -185 -34 -219 -39 -240 -38 -23 1 15 10 140 33 50 8 140 25
200 35 61 11 178 32 260 47 83 14 165 32 182 40 21 8 35 9 39 3 3 -6 13 -8 21
-5 10 4 13 2 10 -8 -4 -10 8 -15 51 -18 39 -3 68 -12 93 -28 31 -21 45 -24 98
-22 53 3 62 6 57 20 -3 10 1 7 10 -6 9 -12 25 -22 35 -22 10 0 21 -4 24 -10 4
-6 -19 -10 -62 -11 -73 0 -63 -17 12 -18 55 -2 25 -21 -31 -21 -30 0 -58 10
-100 35 -57 34 -111 55 -146 55 -25 0 -23 -40 3 -93 43 -84 53 -93 109 -96 45
-2 53 1 76 28 25 29 29 31 101 31 54 0 79 4 90 16 10 10 24 13 37 9 28 -9 57
-8 67 2 5 5 0 49 -11 99 -18 79 -29 131 -55 268 -10 51 7 40 25 -16 7 -24 21
-52 30 -63 29 -34 56 -120 75 -237 5 -30 10 -38 27 -38 19 0 20 4 16 50 -3 28
-1 47 4 44 5 -3 15 2 22 12 7 9 18 14 24 10 15 -9 16 -38 2 -52 -6 -6 -6 -22
0 -44 7 -27 20 -41 53 -59 24 -13 50 -21 56 -17 7 5 20 1 31 -9 10 -9 21 -12
24 -7 3 5 -4 12 -15 15 -14 4 -18 10 -13 19 15 25 11 48 -8 48 -19 0 -19 1 1
26 19 24 21 40 21 153 -1 69 3 146 9 171 5 25 13 82 16 127 4 46 12 83 18 83
7 0 8 -46 4 -136 -5 -115 -3 -135 9 -130 20 7 18 -4 -3 -20 -27 -19 -10 -27
39 -17 l43 9 0 51 c0 69 24 96 80 90 47 -5 177 22 255 52 58 23 66 23 370 5
71 -4 92 -2 84 6 -6 6 -33 14 -59 18 -27 4 -51 14 -55 22 -4 8 -15 29 -24 47
-19 37 -21 94 -4 111 20 20 87 14 142 -12 95 -46 408 -176 422 -176 8 0 14 7
14 15 0 19 17 19 28 0 12 -22 110 -36 179 -25 32 5 186 8 343 6 182 -2 298 1
321 8 l36 11 -13 50 c-8 28 -25 95 -38 150 -49 203 -121 465 -127 465 -4 0 -7
-6 -6 -12 0 -7 -1 -22 -2 -33 l-2 -20 -9 20 c-7 17 -9 14 -10 -15 -1 -19 -4
-30 -6 -23 -3 7 -12 9 -20 6 -8 -3 -14 1 -14 8 0 16 -51 20 -62 4 -12 -16 -9
-25 7 -25 8 0 13 6 11 13 -1 6 -1 9 1 5 3 -5 13 -8 23 -8 11 0 23 -7 28 -16
12 -21 48 -14 44 9 -4 23 15 22 28 -2 15 -28 13 -31 -19 -31 -16 0 -32 -6 -34
-12 -4 -10 -6 -10 -6 0 -1 6 -8 12 -16 12 -9 0 -18 7 -21 15 -5 11 -11 12 -24
5 -15 -8 -23 -5 -38 15 -11 14 -23 25 -26 25 -13 0 -5 -18 19 -45 29 -30 28
-49 -2 -51 -11 -1 -27 -4 -34 -8 -8 -4 -6 -1 4 8 11 8 25 12 33 9 18 -7 18 4
0 23 -11 11 -16 11 -19 1 -4 -8 -8 -8 -14 -2 -4 6 -15 16 -24 23 -14 11 -16 8
-13 -28 1 -22 5 -44 8 -49 3 -5 -1 -11 -8 -14 -17 -7 -40 18 -31 33 3 5 1 10
-4 10 -6 0 -11 -5 -11 -10 0 -6 -7 -10 -16 -8 -10 2 -19 -4 -21 -12 -4 -12 -2
-12 5 -2 7 10 11 10 22 -3 10 -13 9 -15 -8 -15 -16 0 -20 -6 -20 -30 1 -38 -7
-47 -27 -30 -13 11 -14 10 -10 -3 4 -8 1 -18 -5 -22 -7 -4 -14 1 -17 13 -5 20
-5 20 -24 1 -10 -10 -19 -23 -19 -29 0 -16 -15 -12 -35 10 -23 25 -31 25 -31
0 0 -14 7 -20 26 -22 14 0 30 -2 35 -3 6 -2 15 -3 20 -4 6 -1 2 -6 -7 -12 -12
-7 -24 -7 -37 0 -10 6 -22 7 -25 3 -8 -7 -26 17 -23 30 1 3 -9 18 -22 32 -20
21 -27 24 -39 13 -13 -10 -15 -9 -9 6 4 11 3 16 -4 12 -12 -8 -51 24 -43 36 3
5 0 9 -5 9 -6 0 -11 6 -11 13 0 13 -47 37 -115 59 -32 10 -36 13 -17 16 21 3
32 22 12 22 -5 0 -7 8 -4 18 5 14 3 14 -10 -2 -16 -19 -16 -19 -16 2 0 12 5
22 11 22 6 0 3 7 -5 16 -18 17 -20 27 -8 38 10 10 10 30 0 37 -10 7 -27 99
-34 184 -2 33 -7 71 -9 85 -3 14 -14 113 -25 220 -11 107 -24 222 -30 255 -5
33 -15 112 -22 175 -12 113 -12 114 -19 60 -4 -30 -6 -58 -3 -61 5 -8 -34 -15
-62 -11 -16 2 -20 8 -16 27 2 15 9 22 18 18 17 -6 18 9 2 25 -9 9 -9 12 1 12
9 0 11 9 6 30 -5 23 -3 30 9 30 9 0 16 -4 16 -10 0 -5 5 -10 10 -10 6 0 10 9
10 21 0 16 -4 20 -17 14 -14 -5 -15 -4 -6 6 10 10 6 19 -23 45 -23 22 -35 41
-34 56 5 59 0 79 -25 90 -14 6 -25 19 -25 28 0 10 -7 23 -15 30 -20 17 -19 26
5 50 27 27 25 40 -4 40 -13 0 -27 7 -30 16 -4 9 -5 17 -4 18 43 17 52 49 20
74 -9 7 -11 12 -4 12 18 0 15 37 -5 67 -17 26 -17 27 0 20 11 -4 16 -3 12 3
-3 6 -3 16 2 23 4 6 8 17 9 22 0 6 2 16 2 23 1 6 9 12 17 12 20 0 8 27 -15 33
-13 3 -24 21 -32 51 -7 28 -19 48 -30 52 -10 3 -18 10 -18 15 0 5 -3 8 -7 8
-19 -3 -36 2 -30 8 4 3 0 15 -10 25 -9 11 -11 18 -5 18 7 0 12 -5 12 -12 0 -6
3 -9 6 -5 3 3 3 15 -1 28 -5 14 -10 18 -15 10 -9 -15 -52 27 -57 55 -9 47 -25
153 -28 189 -2 22 -9 78 -14 125 -6 47 -8 92 -5 102 2 9 0 19 -6 23 -5 3 -9
27 -9 53 1 26 4 37 6 25 2 -13 9 -23 14 -23 5 0 7 11 5 25 -3 14 0 25 5 25 5
0 9 7 9 15 0 21 22 19 47 -4 24 -23 37 -17 22 10 -7 15 -6 19 6 19 8 0 15 -7
15 -16 0 -14 3 -14 15 -4 12 10 18 10 32 -1 15 -12 16 -12 10 3 -4 12 -2 15 9
11 7 -3 15 -9 15 -14 1 -5 2 -13 3 -18 3 -21 16 -23 16 -3 0 12 5 22 11 22 7
0 9 -11 6 -26 -3 -15 -1 -22 5 -16 5 5 2 85 -7 198 -8 104 -17 228 -21 277 -5
76 -8 87 -24 87 -32 0 -67 -18 -96 -49 -21 -22 -44 -33 -79 -40 -27 -5 -53 -7
-57 -5 -4 2 -8 -10 -10 -28 -3 -26 -5 -20 -12 27 -36 281 -50 411 -76 681 -16
172 -38 381 -50 465 -11 85 -20 157 -20 162 0 4 -5 7 -11 7 -5 0 -7 -5 -3 -11
3 -6 0 -15 -7 -20 -11 -6 -11 -13 -3 -26 9 -14 8 -21 -3 -32 -8 -7 -17 -10
-20 -7 -3 3 -12 1 -20 -6 -11 -8 -12 -7 -7 6 3 9 2 16 -4 16 -15 0 -22 -26 -9
-39 8 -8 8 -11 0 -11 -11 0 -38 28 -38 39 0 3 -7 5 -15 3 -8 -2 -31 -6 -50 -9
-19 -3 -45 -13 -58 -21 -18 -12 -28 -12 -48 -3 -35 16 -44 13 -14 -4 23 -13
24 -14 4 -15 -27 0 -62 -36 -42 -43 7 -2 10 -8 6 -12 -4 -4 -14 -2 -23 5 -12
10 -18 10 -31 -1 -14 -11 -18 -11 -29 4 -9 13 -20 16 -38 12 -14 -4 -28 -2
-32 4 -4 8 -13 3 -26 -11 -14 -17 -17 -18 -13 -5 6 17 -6 23 -20 10 -4 -5 -12
-8 -16 -8 -5 0 -15 -8 -22 -18 -9 -12 -20 -16 -31 -11 -15 5 -15 9 -5 23 9 11
6 10 -9 -3 -12 -10 -37 -21 -55 -25 -22 -5 -33 -13 -32 -24 1 -10 -6 -17 -17
-17 -10 0 -19 -4 -19 -10 0 -5 -7 -10 -15 -10 -8 0 -15 -5 -15 -11 0 -7 -14
-8 -41 -4 -32 6 -40 4 -34 -6 6 -9 3 -11 -8 -6 -10 4 -17 2 -17 -4 0 -6 -7 -8
-16 -5 -15 6 -15 4 -3 -11 13 -15 12 -16 -6 -8 -11 5 -43 9 -70 11 -28 1 -73
9 -100 19 -40 14 -87 17 -243 17 -210 0 -257 -6 -248 -28 3 -8 1 -14 -3 -14
-14 0 0 -41 15 -47 8 -3 14 -9 14 -14 0 -4 -6 -6 -13 -3 -9 3 -11 -6 -8 -38 4
-41 4 -117 1 -155 -1 -10 1 -28 5 -40 6 -17 3 -23 -9 -23 -9 0 -16 -4 -16 -10
0 -5 6 -10 13 -10 9 0 14 -13 15 -37 1 -20 7 -40 13 -44 8 -5 8 -8 -2 -11 -13
-4 -20 -58 -7 -58 4 0 5 -7 2 -15 -4 -8 1 -17 10 -21 9 -3 16 -17 16 -30 0
-21 4 -24 25 -18 20 5 25 2 25 -12 0 -16 2 -17 10 -4 7 11 12 12 21 3 6 -6 8
-16 5 -22 -9 -14 -56 -15 -56 -1 0 6 -4 10 -9 10 -4 0 -6 -11 -4 -24 4 -17 10
-23 21 -19 10 4 13 2 8 -5 -4 -7 -1 -12 8 -12 8 0 16 5 18 12 3 9 6 9 12 -1 5
-8 1 -14 -13 -18 -19 -5 -25 -15 -22 -35 0 -5 -6 -8 -15 -8 -8 0 -13 -4 -10
-9 3 -4 -1 -17 -9 -27 -8 -10 -15 -27 -15 -36 0 -10 -6 -18 -14 -18 -10 0 -19
20 -27 58 -12 57 -12 57 -20 23 -4 -19 -14 -38 -23 -43 -13 -8 -15 -19 -10
-61 4 -29 4 -49 1 -46 -4 3 -9 23 -12 45 -17 132 -18 134 -3 129 11 -5 14 1
10 25 -2 16 -8 33 -13 36 -5 3 -9 11 -9 17 0 7 4 6 11 -3 8 -12 9 -9 5 13 -4
15 -15 36 -26 47 -11 11 -20 26 -21 33 0 6 -3 21 -6 32 -2 11 -5 88 -6 171 -1
132 -3 151 -17 147 -10 -3 -11 -2 -3 4 16 11 11 157 -6 177 -6 7 -11 27 -10
42 2 61 -15 176 -27 189 -10 9 -10 15 -3 17 16 5 1 48 -17 48 -16 0 -19 16 -3
25 6 4 7 14 4 24 -8 18 -27 134 -29 169 -1 20 -26 33 -26 14 0 -5 -7 -9 -15
-9 -12 0 -12 3 -3 16 7 9 9 13 4 9 -5 -4 -18 -2 -29 3 -14 8 -16 13 -7 19 9 5
9 9 1 14 -6 4 -14 0 -17 -8 -3 -9 -11 -16 -17 -16 -5 0 -3 8 6 18 22 24 22 88
1 96 -11 4 -14 14 -11 29 6 21 6 21 -8 3 -13 -18 -20 -15 -16 7 0 4 -13 7 -30
7 -23 0 -30 4 -26 14 4 9 -2 17 -14 21 -10 4 -19 15 -19 26 0 10 -4 19 -10 19
-5 0 -12 11 -16 25 -5 21 -9 23 -20 14 -18 -15 -24 -9 -27 29 -1 16 -5 28 -9
25 -9 -5 -9 -4 -13 43 -1 17 -8 40 -15 50 -11 18 -11 18 -6 1 3 -11 3 -23 0
-29 -9 -14 -24 11 -24 40 0 20 -5 22 -47 23 -44 1 -46 1 -20 11 15 5 25 13 22
18 -9 15 6 39 21 33 9 -3 14 1 14 12 0 9 -4 13 -10 10 -5 -3 -10 -1 -10 4 0 6
-8 11 -18 11 -9 0 -23 9 -30 21 -8 13 -20 19 -31 16 -12 -3 -18 1 -17 12 1 10
-6 15 -19 14 -28 -2 -78 26 -72 42 4 9 -1 11 -16 7 -20 -5 -19 -3 6 20 29 27
35 43 13 35 -8 -3 -20 1 -26 8 -7 8 -26 14 -44 14 -79 -2 -104 7 -151 56 -25
27 -45 43 -45 38 0 -6 -7 -13 -15 -17 -10 -4 -15 1 -15 15 0 12 4 17 11 14 6
-4 5 2 -3 14 -7 12 -17 21 -23 21 -5 0 -3 5 5 10 10 6 -327 10 -960 10 -911 0
-977 -1 -1001 -18z m2411 -362 c0 -5 -4 -10 -10 -10 -5 0 -10 5 -10 10 0 6 5
10 10 10 6 0 10 -4 10 -10z m2105 -870 c3 -5 -1 -10 -9 -10 -9 0 -16 5 -16 10
0 6 4 10 9 10 6 0 13 -4 16 -10z m-45 -20 c0 -5 -2 -10 -4 -10 -3 0 -8 5 -11
10 -3 6 -1 10 4 10 6 0 11 -4 11 -10z m-11 -19 c10 -7 7 -9 -12 -8 -14 1 -23
5 -20 10 6 9 15 9 32 -2z m96 -9 c-3 -3 -11 0 -18 7 -9 10 -8 11 6 5 10 -3 15
-9 12 -12z m-1720 -2 c3 -5 1 -10 -4 -10 -6 0 -11 5 -11 10 0 6 2 10 4 10 3 0
8 -4 11 -10z m1565 0 c12 -8 11 -10 -5 -8 -11 2 -21 -1 -22 -6 -3 -18 -35 -29
-44 -15 -12 19 -11 29 2 29 5 0 8 -4 4 -9 -3 -5 -1 -12 4 -15 5 -4 12 3 16 14
7 22 22 25 45 10z m-293 -57 c-9 -2 -15 -9 -12 -14 4 -5 -1 -9 -9 -9 -8 0 -17
4 -21 9 -5 10 17 19 45 19 10 0 9 -2 -3 -5z m-819 -125 c2 -21 -1 -46 -7 -55
-8 -16 -12 -13 -26 20 -18 44 -12 80 13 75 12 -2 18 -15 20 -40z m525 -17 c20
-11 44 -17 60 -14 15 3 27 1 27 -3 0 -5 5 -36 10 -69 5 -33 17 -143 25 -245 9
-102 17 -201 20 -220 2 -19 7 -64 10 -100 4 -36 15 -85 25 -110 10 -25 26 -76
35 -115 9 -38 20 -74 25 -80 4 -5 10 -23 14 -40 20 -89 90 -363 112 -435 8
-25 16 -65 19 -89 3 -24 7 -47 10 -51 7 -12 35 -154 41 -210 4 -30 10 -58 15
-61 8 -4 21 -102 23 -161 0 -10 4 -18 8 -18 4 0 8 -15 8 -33 0 -19 6 -54 14
-79 7 -25 10 -51 6 -58 -7 -12 -10 -7 -53 115 -14 39 -62 171 -108 295 -109
298 -128 357 -204 610 -36 118 -68 226 -73 240 -4 14 -5 70 0 125 4 55 8 231
9 390 1 240 -1 296 -14 325 -17 39 -47 70 -92 93 -16 9 -25 16 -18 17 7 0 28
-9 46 -19z m-467 -47 c1 -19 -2 -34 -7 -34 -5 0 -9 19 -9 42 0 49 14 42 16 -8z
m4 -83 c0 -55 -16 -60 -18 -6 -1 25 2 45 8 45 5 0 10 -18 10 -39z m-2350 19
c13 -8 12 -10 -2 -10 -10 0 -18 -6 -18 -13 0 -9 10 -12 31 -9 22 3 30 1 25 -7
-4 -6 -18 -11 -32 -11 -13 0 -24 -4 -24 -10 0 -18 -23 -10 -52 17 -35 33 -35
41 0 46 48 7 57 7 72 -3z m-1073 -42 c-3 -8 -6 -5 -6 6 -1 11 2 17 5 13 3 -3
4 -12 1 -19z m-1 -80 c-19 -13 -26 -9 -24 16 2 23 3 24 19 8 11 -12 13 -19 5
-24z m1794 32 c0 -5 -2 -10 -4 -10 -3 0 -8 5 -11 10 -3 6 -1 10 4 10 6 0 11
-4 11 -10z m-510 -50 c0 -5 -4 -10 -10 -10 -5 0 -10 5 -10 10 0 6 5 10 10 10
6 0 10 -4 10 -10z m633 -107 c-7 -2 -19 -2 -25 0 -7 3 -2 5 12 5 14 0 19 -2
13 -5z m-16 -35 c-3 -8 -6 -5 -6 6 -1 11 2 17 5 13 3 -3 4 -12 1 -19z m1112
-167 c1 -63 -1 -112 -3 -110 -2 2 -4 6 -4 9 0 3 -10 30 -22 60 -23 58 -23 108
0 165 11 28 13 28 20 10 5 -11 9 -71 9 -134z m261 69 c0 -11 -4 -20 -9 -20
-14 0 -23 18 -16 30 10 17 25 11 25 -10z m1510 4 c0 -10 -6 -14 -14 -11 -12 5
-12 -2 2 -41 13 -40 14 -63 5 -153 -6 -59 -15 -113 -19 -121 -5 -7 -14 -33
-21 -58 -10 -39 -11 -28 -6 80 3 69 7 169 7 222 1 95 2 98 24 98 14 0 22 -6
22 -16z m-1830 -214 c0 -14 11 -88 25 -164 27 -149 31 -196 16 -180 -14 14
-59 209 -67 289 -3 39 -8 81 -9 95 -2 14 0 29 3 35 8 12 31 -43 32 -75z m333
36 c6 -14 0 -26 -13 -26 -3 0 -6 9 -6 20 0 23 11 27 19 6z m-963 -11 c10 -12
10 -15 -4 -15 -9 0 -16 7 -16 15 0 8 2 15 4 15 2 0 9 -7 16 -15z m568 -195
c11 -58 23 -125 27 -150 3 -25 17 -75 31 -112 14 -38 24 -73 22 -80 -2 -6 -11
9 -19 33 -9 24 -24 67 -34 94 -29 81 -55 195 -61 270 -9 103 10 72 34 -55z
m-778 30 c13 -9 13 -10 0 -10 -8 -1 -2 -8 13 -16 16 -8 34 -13 40 -11 7 2 18
-5 25 -17 9 -14 12 -16 8 -3 -6 20 12 23 20 3 3 -8 12 -17 20 -20 9 -3 12 -1
9 4 -7 11 28 14 38 4 3 -3 37 -8 76 -11 68 -4 69 -3 64 18 -5 18 -3 21 10 16
10 -4 17 -2 17 3 0 6 7 10 15 10 8 0 15 -5 15 -10 0 -6 12 -3 27 7 l26 17 -6
-114 c-6 -114 -26 -212 -53 -260 -25 -46 -42 -109 -30 -113 20 -6 205 -2 212
5 3 4 3 15 -1 25 -5 10 -7 24 -6 31 1 7 -5 15 -14 18 -22 9 -48 61 -35 69 26
16 117 -32 97 -51 -3 -4 5 -22 20 -40 23 -31 29 -33 64 -28 33 6 41 3 65 -22
15 -16 33 -42 40 -59 7 -16 13 -27 14 -22 0 4 0 10 0 15 1 4 8 18 16 30 19 29
13 59 -24 115 -62 95 -99 120 -208 137 -86 14 -93 19 -62 44 14 12 37 41 51
66 15 25 39 58 54 75 15 16 35 42 43 58 9 16 20 30 24 31 5 0 24 -59 42 -133
33 -130 44 -162 44 -128 0 41 19 10 43 -70 42 -140 63 -197 75 -201 7 -2 10
-8 7 -13 -11 -17 87 -109 166 -155 43 -25 79 -52 79 -60 0 -8 -7 -25 -15 -38
-19 -29 -10 -56 18 -56 28 0 10 -17 -23 -22 -24 -3 -24 -4 12 -25 81 -48 101
-142 43 -203 -18 -19 -26 -36 -22 -49 3 -11 -1 -25 -9 -32 -30 -25 -73 -116
-80 -169 -3 -30 -14 -91 -24 -136 -10 -45 -14 -87 -10 -95 14 -23 -13 -46 -78
-68 -34 -12 -76 -30 -94 -41 -18 -11 -49 -20 -69 -20 -34 0 -37 2 -42 38 -4
20 -9 93 -13 162 -4 69 -11 130 -16 135 -7 7 -8 -4 -4 -30 3 -22 8 -99 12
-172 l6 -132 -28 -6 c-98 -20 -104 -24 -104 -61 0 -19 6 -36 13 -39 6 -2 59
-6 117 -9 58 -2 110 -6 115 -7 10 -3 167 13 315 32 41 5 127 14 190 19 63 5
149 14 190 20 41 6 102 13 135 16 33 2 84 9 114 14 30 6 77 10 103 10 32 0 47
4 43 11 -4 5 -4 22 0 37 l7 27 29 -35 c23 -27 32 -32 38 -21 5 7 13 11 19 7
17 -11 42 5 43 28 l0 21 11 -21 c8 -18 16 -20 61 -17 117 10 150 42 129 125
-14 53 -8 61 9 15 12 -34 15 -35 57 -34 l44 2 -6 80 c-10 125 -65 686 -71 725
-3 19 -8 79 -11 133 -4 82 -2 98 11 103 8 3 15 13 15 21 0 8 5 11 10 8 6 -3
10 -20 10 -36 0 -17 -4 -28 -9 -25 -5 4 -7 -11 -5 -31 2 -21 18 -229 34 -463
40 -564 36 -530 66 -530 13 0 24 3 24 8 0 4 9 88 20 187 11 99 31 299 45 445
15 146 28 266 30 268 13 13 24 -15 20 -46 -6 -42 -70 -642 -83 -775 -7 -79 -3
-113 12 -89 3 5 10 63 15 129 6 67 22 193 37 280 14 87 28 195 31 241 4 59 10
82 19 82 21 0 22 2 -30 -325 -34 -217 -49 -395 -35 -412 17 -20 39 -16 49 10
l9 22 0 -22 c1 -18 7 -23 26 -23 14 0 25 -4 25 -8 0 -14 90 -54 105 -48 13 4
14 25 8 122 -4 79 -3 115 4 111 6 -4 13 -50 17 -104 4 -54 10 -101 12 -105 3
-4 15 -1 27 6 24 16 144 42 153 33 6 -5 8 -36 4 -52 -8 -31 2 -63 20 -68 11
-3 20 -11 20 -19 -1 -18 -66 -58 -96 -58 -31 0 -30 -6 6 -40 33 -31 40 -56 13
-45 -31 13 -103 18 -103 8 0 -13 -103 -4 -111 10 -4 5 -11 7 -16 4 -11 -7 -63
14 -63 24 0 3 -14 27 -31 52 -25 38 -37 47 -59 47 -16 0 -32 5 -35 10 -4 6
-14 9 -23 6 -15 -5 -437 -49 -727 -76 -55 -5 -120 -12 -145 -15 -25 -2 -92 -7
-150 -10 -58 -3 -134 -10 -170 -16 -36 -5 -87 -12 -115 -14 -221 -18 -218 -18
-223 -37 -2 -10 -7 -18 -11 -19 -3 0 -42 -3 -86 -5 -178 -9 -259 -17 -305 -31
-47 -14 -97 -16 -105 -3 -12 20 -26 10 -15 -11 9 -17 8 -23 -7 -35 -25 -19
-33 -17 -33 5 0 11 -8 22 -17 25 -46 13 -503 -18 -575 -40 -25 -8 -23 -44 2
-44 17 0 18 -3 9 -18 -11 -17 -9 -21 91 -259 10 -25 25 -30 36 -12 4 7 27 8
65 4 39 -5 64 -3 73 4 10 8 17 7 26 -4 11 -13 10 -14 -1 -10 -8 3 -23 -2 -34
-10 -19 -16 -19 -16 9 -10 17 4 32 2 36 -5 6 -10 83 -3 170 17 l25 5 -23 -17
c-12 -9 -34 -18 -47 -19 -29 -3 -46 -16 -21 -16 30 0 8 -17 -31 -24 -98 -17
-99 -17 -78 -32 18 -13 17 -14 -1 -20 -61 -20 -75 -30 -70 -47 2 -10 -2 -17
-11 -17 -8 0 -11 5 -8 10 3 6 -3 10 -14 10 -28 0 -28 -37 -1 -114 12 -32 32
-135 46 -229 l25 -172 62 -65 c125 -129 182 -215 222 -335 66 -200 76 -252 54
-266 -8 -5 -18 -9 -24 -9 -5 1 -2 5 8 11 20 12 23 31 3 23 -11 -4 -13 4 -10
38 2 24 1 34 -2 23 -8 -26 -34 -56 -45 -50 -4 3 -1 18 7 33 15 29 19 97 5 88
-4 -3 -11 -19 -15 -36 -3 -17 -17 -42 -30 -55 -30 -30 -58 -35 -32 -6 22 24
45 87 45 121 -1 19 -7 12 -26 -30 -30 -67 -50 -90 -76 -90 -20 0 -19 2 5 28
29 30 64 131 55 156 -4 9 -16 16 -27 16 -14 0 -20 -7 -20 -24 0 -46 -33 -127
-62 -152 -27 -22 -74 -34 -66 -16 2 4 18 37 37 73 19 37 31 73 28 82 -8 21
-47 10 -47 -13 0 -28 -26 -43 -62 -36 -40 7 -61 -4 -52 -28 5 -13 13 -16 35
-11 22 5 29 3 29 -9 0 -24 -84 -106 -108 -106 -25 0 -30 18 -7 26 8 3 23 22
35 41 l20 35 -28 -7 c-29 -6 -49 9 -85 67 -11 17 -23 25 -32 22 -11 -5 -14 -2
-9 12 4 11 4 16 -1 12 -4 -4 -15 -2 -23 5 -13 10 -14 8 -7 -13 10 -34 34 -79
59 -113 18 -24 18 -29 6 -37 -43 -28 -60 -9 -162 174 -36 67 -72 120 -78 118
-7 -2 -10 3 -7 12 3 8 -8 47 -26 86 -31 70 -31 71 -48 49 -16 -22 -16 -21 -23
27 -10 67 -25 124 -34 124 -25 -1 -34 -19 -24 -51 6 -19 16 -69 21 -112 9 -65
8 -84 -5 -115 -11 -26 -12 -42 -5 -57 12 -23 154 -316 159 -327 2 -5 -12 -8
-32 -8 -31 0 -38 5 -62 45 -14 25 -33 71 -41 102 -8 31 -23 73 -33 93 -10 19
-18 57 -18 85 0 96 -30 239 -71 336 -66 158 -84 232 -76 297 4 31 9 202 10
379 3 326 10 429 46 695 14 102 17 158 11 180 -6 21 -11 27 -14 18 -9 -26 -28
-159 -28 -195 0 -18 -4 -36 -8 -39 -14 -9 -24 231 -10 253 19 30 49 45 59 29
6 -9 9 -7 9 10 0 12 4 22 9 22 5 0 13 10 17 23 4 12 24 40 45 62 22 22 39 43
39 47 0 5 6 8 14 8 7 0 32 17 53 38 59 55 130 112 140 112 5 0 31 20 56 45 26
25 54 45 62 45 8 0 31 18 51 40 20 22 40 40 45 40 5 0 28 21 51 47 24 26 53
58 66 71 12 12 22 25 22 27 0 3 6 13 14 22 135 165 202 265 191 283 -4 6 -1 9
7 8 7 -2 14 7 16 20 4 26 -3 28 -24 7 -21 -20 -44 -19 -43 3 0 10 3 12 6 5 7
-19 21 -16 34 8 10 19 9 20 -13 14 -12 -4 -20 -4 -16 0 4 5 3 14 -3 22 -6 7
-8 13 -3 13 5 0 3 4 -5 9 -8 5 -14 23 -13 40 0 23 -5 32 -21 37 -12 4 -26 12
-30 18 -5 7 -6 3 -3 -8 6 -16 2 -18 -22 -13 -24 5 -31 2 -40 -18 -6 -14 -9
-33 -5 -42 5 -15 3 -16 -8 -5 -21 19 -55 14 -68 -10 -10 -20 -11 -20 -7 -3 2
11 6 27 8 35 3 8 3 12 1 8 -8 -14 -25 -8 -20 6 3 8 -2 16 -13 19 -13 3 -17 11
-13 26 3 12 1 21 -6 21 -6 0 -16 12 -22 27 -8 22 -12 24 -19 13 -8 -12 -10
-10 -10 8 0 16 -7 26 -21 29 -17 5 -19 11 -13 37 6 27 5 29 -10 17 -13 -11
-19 -11 -31 -1 -13 11 -12 16 8 40 14 17 25 23 29 16 5 -7 8 -5 8 5 0 8 -6 21
-12 28 -11 11 -9 12 9 7 22 -7 47 14 25 22 -7 2 -10 8 -7 12 3 5 17 5 31 0 34
-13 39 -13 25 3 -18 23 2 34 29 17z m2607 -137 c-3 -10 -5 -2 -5 17 0 19 2 27
5 18 2 -10 2 -26 0 -35z m-722 -147 c14 -54 24 -100 22 -102 -5 -5 -67 196
-67 216 1 29 17 -13 45 -114z m712 42 c-2 -13 -4 -5 -4 17 -1 22 1 32 4 23 2
-10 2 -28 0 -40z m-282 -108 c4 -6 3 -45 -1 -87 -6 -66 -8 -74 -20 -59 -15 21
-29 118 -20 141 6 17 32 20 41 5z m456 -187 c-10 -164 -35 -418 -60 -608 -19
-142 -9 24 13 225 31 280 40 408 28 395 -13 -14 -59 -337 -99 -705 -16 -148
-19 -159 -24 -110 -4 30 -1 100 6 155 8 55 18 141 24 190 6 50 15 128 21 175
6 47 12 113 14 148 3 40 10 70 20 81 9 10 16 25 16 35 0 15 20 124 36 195 13
59 15 -2 5 -176z m-777 -118 c25 -83 46 -155 46 -160 -1 -22 -33 67 -71 195
-51 177 -59 206 -58 216 1 12 28 -70 83 -251z m-1084 198 c0 -20 -3 -24 -11
-16 -7 7 -9 19 -6 27 10 24 17 19 17 -11z m1950 -53 c0 -5 -5 -10 -11 -10 -5
0 -7 5 -4 10 3 6 8 10 11 10 2 0 4 -4 4 -10z m-53 -42 c-3 -7 -5 -2 -5 12 0
14 2 19 5 13 2 -7 2 -19 0 -25z m-3447 -39 c0 8 5 7 15 -3 8 -8 15 -18 15 -22
0 -5 -5 -3 -11 3 -6 6 -17 9 -24 7 -7 -3 -15 2 -19 12 -5 14 -4 15 9 4 11 -9
15 -9 15 -1z m2370 -116 c23 -60 51 -137 63 -173 12 -36 24 -67 27 -70 3 -3 6
-72 7 -155 2 -82 9 -220 17 -305 8 -88 10 -159 5 -164 -12 -14 -79 43 -107 90
-12 21 -36 82 -53 134 -35 109 -58 151 -100 181 -16 11 -29 27 -29 35 0 8 -12
24 -26 37 -74 64 -71 159 7 220 30 24 32 27 20 55 -7 17 -21 38 -32 48 -32 29
-23 50 34 82 28 16 65 44 81 61 17 17 33 31 37 31 4 0 26 -48 49 -107z m-339
-78 c-1 -15 -24 -12 -29 3 -3 9 2 13 12 10 10 -1 17 -7 17 -13z m-141 -36 c0
-5 -9 -9 -20 -9 -22 0 -27 16 -7 23 15 5 27 -1 27 -14z m-69 -12 c-1 -12 -15
-9 -19 4 -3 6 1 10 8 8 6 -3 11 -8 11 -12z m117 -170 c2 -10 -3 -17 -12 -17
-10 0 -16 9 -16 21 0 24 23 21 28 -4z m92 -23 c0 -17 -22 -14 -28 4 -2 7 3 12
12 12 9 0 16 -7 16 -16z m475 -31 c7 -40 33 -109 67 -180 12 -23 22 -54 23
-68 3 -24 29 -98 62 -175 17 -38 30 -230 14 -195 -5 11 -10 53 -10 93 -1 64
-3 73 -18 70 -15 -3 -19 -16 -21 -70 l-3 -68 -43 23 -42 22 -13 139 c-7 76
-15 151 -17 165 -24 171 -31 296 -15 287 5 -3 12 -23 16 -43z m-635 -64 c0
-11 -4 -17 -10 -14 -5 3 -10 13 -10 21 0 8 5 14 10 14 6 0 10 -9 10 -21z m50
11 c0 -5 -7 -10 -16 -10 -8 0 -12 5 -9 10 3 6 10 10 16 10 5 0 9 -4 9 -10z
m164 -92 c8 -13 7 -21 -2 -30 -11 -11 -17 -9 -32 10 -15 18 -28 22 -70 22 -33
0 -49 4 -45 10 4 6 34 10 72 8 49 -2 69 -7 77 -20z m1253 -55 c-3 -10 -5 -2
-5 17 0 19 2 27 5 18 2 -10 2 -26 0 -35z m-4530 5 c-3 -8 -6 -5 -6 6 -1 11 2
17 5 13 3 -3 4 -12 1 -19z m3097 -39 c12 -48 -12 -133 -34 -119 -10 6 -15 25
-15 57 1 98 30 136 49 62z m1423 -36 c-3 -10 -5 -2 -5 17 0 19 2 27 5 18 2
-10 2 -26 0 -35z m-70 -35 c-3 -7 -5 -2 -5 12 0 14 2 19 5 13 2 -7 2 -19 0
-25z m60 -30 c-3 -7 -5 -2 -5 12 0 14 2 19 5 13 2 -7 2 -19 0 -25z m-1197 -44
c0 -26 1 -29 21 -50 27 -28 17 -33 -56 -24 -32 3 -77 3 -100 -2 -97 -20 -105
-21 -105 -9 0 17 55 38 123 46 46 6 57 11 57 26 0 10 5 30 12 45 l12 26 18
-22 c10 -12 18 -28 18 -36z m1134 24 c-4 -14 -2 -18 5 -14 7 5 11 -4 10 -26
-1 -20 -3 -25 -6 -14 -4 15 -7 16 -14 5 -6 -9 -9 2 -9 34 0 31 4 46 10 42 6
-4 8 -16 4 -27z m53 -35 c-3 -10 -5 -4 -5 12 0 17 2 24 5 18 2 -7 2 -21 0 -30z
m-10 -55 c-3 -7 -5 -2 -5 12 0 14 2 19 5 13 2 -7 2 -19 0 -25z m-61 -66 c-12
-11 -15 5 -8 48 l7 45 3 -44 c2 -23 1 -46 -2 -49z m-3296 23 c-6 -22 -10 -176
-11 -342 -1 -171 -5 -303 -10 -303 -5 0 -9 8 -9 18 0 24 -124 516 -144 571 -9
24 -15 45 -14 46 2 2 17 6 35 9 32 7 32 7 49 -54 9 -33 20 -63 25 -65 4 -3 4
8 -2 25 -5 16 -13 43 -18 59 -8 27 -6 32 27 54 70 47 86 43 72 -18z m-264 -1
c13 -3 26 -19 32 -37 l11 -32 -5 34 c-4 20 -2 31 3 28 6 -4 13 -39 17 -79 11
-125 98 -484 153 -633 8 -22 17 -83 20 -135 4 -55 9 -87 13 -75 9 25 35 -381
27 -434 -3 -24 0 -47 8 -58 7 -10 34 -81 60 -157 58 -172 77 -308 52 -362 -9
-19 -21 -34 -26 -34 -5 0 -12 30 -16 68 -6 63 -24 157 -59 317 -9 39 -16 82
-16 97 0 51 -18 38 -32 -24 l-14 -63 -8 155 c-4 85 -4 187 -1 225 10 132 14
220 9 207 -9 -20 -24 -3 -24 27 0 32 -29 134 -40 141 -4 3 -21 53 -38 112 -31
105 -89 245 -150 363 -31 60 -31 60 -32 25 0 -19 14 -75 30 -123 17 -49 30
-93 30 -98 0 -5 20 -55 44 -112 24 -56 64 -167 90 -247 l47 -145 6 -196 c4
-122 2 -202 -4 -213 -7 -13 -12 8 -16 81 -7 108 -43 290 -82 419 -23 76 -29
85 -61 100 -26 13 -34 22 -31 36 4 13 0 18 -14 18 -21 0 -20 -5 24 -100 41
-89 64 -157 93 -275 27 -111 64 -377 64 -460 0 -30 5 -57 10 -60 16 -10 12
-70 -10 -132 -11 -32 -26 -90 -34 -129 -8 -39 -26 -100 -40 -135 l-26 -64 6
50 c3 28 13 84 22 125 28 125 19 442 -19 670 -10 62 -65 241 -85 282 -8 15
-16 44 -19 65 -9 63 -55 176 -55 135 0 -7 -7 -12 -15 -12 -27 0 -13 31 18 43
17 6 17 9 2 29 -11 17 -26 23 -55 24 -22 0 -42 3 -46 6 -17 18 -28 173 -26
368 3 213 3 215 29 252 32 46 47 39 40 -18 -2 -24 -1 -44 3 -44 10 0 20 53 20
111 0 30 6 53 16 63 16 16 61 21 100 10z m2677 -51 c-7 -2 -19 -2 -25 0 -7 3
-2 5 12 5 14 0 19 -2 13 -5z m-143 -7 c0 -2 -12 -11 -26 -21 -19 -12 -29 -14
-39 -5 -10 8 -55 9 -157 4 -79 -3 -139 -3 -135 2 10 11 357 31 357 20z m1350
-374 c0 -21 -2 -24 -10 -12 -13 20 -13 53 0 45 6 -3 10 -18 10 -33z m-895 -7
c54 -4 107 -11 116 -16 16 -8 17 -33 13 -306 -3 -164 -6 -311 -9 -328 -2 -16
-6 -82 -10 -145 -13 -256 -16 -279 -31 -273 -9 3 -13 12 -10 20 8 20 -10 50
-34 58 -29 9 -25 32 15 81 19 23 35 44 35 47 0 3 -30 8 -67 12 -67 7 -67 7
-45 25 17 14 19 19 8 23 -8 3 -16 2 -18 -3 -4 -12 -29 -14 -62 -5 -20 5 -37 3
-56 -8 -26 -16 -28 -15 -44 2 -10 10 -25 17 -35 14 -9 -2 -23 3 -30 11 -18 21
-33 20 -29 -1 2 -13 -5 -18 -26 -20 -16 -1 -34 -7 -40 -13 -15 -15 -36 -12
-36 5 0 8 5 15 10 15 6 0 10 5 10 11 0 8 -26 10 -89 7 -103 -6 -115 -11 -101
-39 6 -10 11 -34 12 -53 1 -40 20 -49 81 -39 26 4 35 9 28 17 -7 8 7 11 51 11
40 0 63 -5 66 -13 2 -6 12 -12 23 -12 11 0 22 -7 26 -16 3 -10 13 -14 25 -10
14 3 22 -1 25 -15 3 -10 11 -19 18 -19 7 0 15 -9 18 -20 5 -20 27 -28 27 -10
0 6 18 10 40 10 22 0 40 -4 40 -10 0 -12 37 -50 49 -50 11 0 25 -30 22 -51 -1
-13 4 -15 25 -11 21 4 25 1 22 -14 -2 -11 -8 -18 -13 -17 -6 0 -18 -3 -28 -8
-24 -14 -5 -49 27 -49 23 0 41 -23 31 -40 -9 -15 -45 -19 -45 -5 0 12 -6 11
-35 -1 -41 -17 -48 -17 -40 -4 3 6 2 10 -4 10 -5 0 -12 -4 -16 -9 -8 -14 -144
-42 -184 -39 -36 3 -39 -2 -55 -73 -3 -15 -15 -29 -26 -32 -11 -3 -20 -12 -20
-21 0 -9 -4 -16 -8 -16 -5 0 -23 -21 -42 -47 -30 -43 -34 -46 -41 -28 -12 30
-107 460 -119 540 -6 39 -18 95 -26 125 -9 30 -33 141 -53 245 l-36 190 -69 7
c-77 7 -156 28 -156 40 0 5 7 11 15 14 8 4 12 11 9 16 -4 7 9 8 37 4 24 -4 68
-8 97 -9 49 -2 55 -5 68 -32 l14 -30 -5 35 c-7 48 -9 56 -23 73 -12 14 -23 67
-37 168 -5 44 -4 47 22 57 44 16 113 15 113 -3 0 -8 -4 -15 -10 -15 -16 0 -12
-17 6 -24 8 -3 24 -1 36 5 18 10 18 12 4 28 -19 21 -12 31 20 31 12 0 24 5 26
11 4 11 112 26 241 33 38 2 71 7 75 10 3 4 31 4 61 2 31 -3 101 -8 156 -11z
m-849 -172 c-10 -11 -36 -12 -36 -2 0 5 10 9 22 9 12 0 18 -3 14 -7z m1684
-40 c0 -5 -4 -15 -10 -23 -11 -18 -25 -7 -17 15 6 15 27 21 27 8z m-2750 -17
c0 -9 -30 -14 -35 -6 -4 6 3 10 14 10 12 0 21 -2 21 -4z m-3 -42 c-3 -3 -12
-4 -19 -1 -8 3 -5 6 6 6 11 1 17 -2 13 -5z m-172 -14 c-3 -5 -12 -10 -18 -10
-7 0 -6 4 3 10 19 12 23 12 15 0z m2924 -67 c1 -16 8 -23 28 -25 43 -5 39 -25
-4 -23 l-38 3 -2 53 c-2 39 0 48 7 34 5 -11 9 -30 9 -42z m-1974 19 c-6 -5
-46 -18 -90 -30 -64 -16 -109 -20 -222 -20 -84 1 -148 -3 -155 -9 -7 -6 -33
-13 -58 -17 l-45 -6 35 17 c19 9 40 17 45 18 6 0 29 6 53 13 29 9 70 11 125 6
81 -6 226 9 257 27 19 11 67 12 55 1z m98 1 c-7 -2 -19 -2 -25 0 -7 3 -2 5 12
5 14 0 19 -2 13 -5z m-822 -26 c-8 -8 -16 -7 -27 5 -14 14 -14 15 11 10 19 -3
23 -8 16 -15z m276 7 c-3 -3 -12 -4 -19 -1 -8 3 -5 6 6 6 11 1 17 -2 13 -5z
m-87 -24 c0 -5 -4 -10 -9 -10 -6 0 -13 5 -16 10 -3 6 1 10 9 10 9 0 16 -4 16
-10z m580 0 c0 -5 -11 -10 -25 -10 -14 0 -25 5 -25 10 0 6 11 10 25 10 14 0
25 -4 25 -10z m-457 -38 c-13 -2 -23 -9 -23 -15 0 -7 -4 -6 -10 3 -7 11 -4 16
13 21 12 3 27 3 32 0 6 -3 0 -7 -12 -9z m17 -32 c0 -5 -8 -10 -17 -10 -15 0
-16 2 -3 10 19 12 20 12 20 0z m685 1 c3 -5 0 -13 -6 -17 -6 -3 -14 -1 -18 5
-5 8 -15 9 -32 2 l-24 -10 25 -2 c66 -5 -352 -49 -448 -47 -34 0 -65 5 -69 11
-4 6 2 8 15 5 12 -4 25 -2 28 3 3 5 16 6 28 3 15 -4 25 0 29 9 8 21 87 33 98
16 6 -10 9 -11 9 -1 0 6 5 12 11 12 5 0 7 -5 4 -10 -8 -13 18 -8 27 5 4 5 60
11 124 12 65 2 120 5 122 8 9 9 71 5 77 -4z m-1951 -53 c6 -30 2 -47 -9 -36
-11 10 -17 68 -7 68 5 0 12 -14 16 -32z m3656 -85 c0 -20 -3 -24 -11 -16 -7 7
-9 19 -6 27 10 24 17 19 17 -11z m100 -52 c0 -12 -20 -25 -27 -18 -7 7 6 27
18 27 5 0 9 -4 9 -9z m-1370 -181 c0 -5 -4 -10 -10 -10 -5 0 -10 5 -10 10 0 6
5 10 10 10 6 0 10 -4 10 -10z m50 -61 c0 -5 -4 -9 -10 -9 -5 0 -10 7 -10 16 0
8 5 12 10 9 6 -3 10 -10 10 -16z m220 -39 c0 -5 -4 -10 -9 -10 -6 0 -13 5 -16
10 -3 6 1 10 9 10 9 0 16 -4 16 -10z m108 -67 c-10 -2 -18 -12 -18 -21 0 -14
-2 -15 -10 -2 -10 16 5 30 30 29 11 -1 10 -3 -2 -6z m42 -83 c0 -5 -5 -10 -11
-10 -5 0 -7 5 -4 10 3 6 8 10 11 10 2 0 4 -4 4 -10z m83 -70 c-3 -11 -7 -20
-9 -20 -2 0 -4 9 -4 20 0 11 4 20 9 20 5 0 7 -9 4 -20z m-2825 -105 c61 -311
65 -366 31 -421 -11 -19 -24 -34 -28 -34 -9 0 -17 126 -13 224 2 53 -3 82 -19
122 -20 49 -21 56 -8 113 15 69 23 68 37 -4z m309 -82 c75 -144 175 -330 189
-350 15 -20 14 -21 -17 -28 -42 -9 -57 9 -127 148 -80 161 -103 222 -96 256 4
17 10 31 14 31 4 0 21 -26 37 -57z m4426 36 c-4 -15 -8 -17 -14 -8 -8 14 -3
29 11 29 4 0 6 -9 3 -21z m-1048 2 c6 -10 -25 -31 -44 -31 -6 0 -11 9 -11 20
0 15 7 20 24 20 14 0 27 -4 31 -9z m-895 -11 c0 -5 -5 -10 -11 -10 -5 0 -7 5
-4 10 3 6 8 10 11 10 2 0 4 -4 4 -10z m1295 -20 c3 -5 1 -10 -4 -10 -6 0 -11
5 -11 10 0 6 2 10 4 10 3 0 8 -4 11 -10z m-1375 -10 c0 -5 -4 -10 -10 -10 -5
0 -10 5 -10 10 0 6 5 10 10 10 6 0 10 -4 10 -10z m1395 -50 c3 -5 1 -10 -4
-10 -6 0 -11 5 -11 10 0 6 2 10 4 10 3 0 8 -4 11 -10z m-1625 -10 c0 -5 -7
-10 -16 -10 -8 0 -12 5 -9 10 3 6 10 10 16 10 5 0 9 -4 9 -10z m160 -45 c10
-12 10 -15 -3 -15 -8 0 -20 7 -27 15 -10 12 -10 15 3 15 8 0 20 -7 27 -15z
m1470 1 c0 -3 -4 -8 -10 -11 -5 -3 -10 -1 -10 4 0 6 5 11 10 11 6 0 10 -2 10
-4z m345 -26 c3 -5 1 -10 -4 -10 -6 0 -11 5 -11 10 0 6 2 10 4 10 3 0 8 -4 11
-10z m-1955 -30 c0 -5 -2 -10 -4 -10 -3 0 -8 5 -11 10 -3 6 -1 10 4 10 6 0 11
-4 11 -10z m-25 -10 c7 -11 -19 -42 -28 -34 -3 3 -19 6 -36 6 -36 1 -41 15 -8
28 30 12 65 12 72 0z m-2545 -199 c0 -57 -4 -92 -12 -97 -7 -4 -8 -3 -4 4 4 6
0 28 -9 48 -19 47 -22 84 -6 112 22 42 31 23 31 -67z m2520 25 c0 -3 -4 -8
-10 -11 -5 -3 -10 -1 -10 4 0 6 5 11 10 11 6 0 10 -2 10 -4z m175 -6 c3 -5 -3
-10 -14 -10 -12 0 -21 5 -21 10 0 6 6 10 14 10 8 0 18 -4 21 -10z m168 -31
c-8 -29 -13 -23 -13 14 0 22 3 28 9 18 5 -7 6 -22 4 -32z m-278 7 c-11 -8 -24
-12 -29 -8 -5 3 -1 9 10 13 31 12 39 10 19 -5z m145 -21 c8 -1 28 -6 43 -10
39 -10 14 -27 -29 -19 -17 3 -51 7 -75 8 -47 2 -69 11 -69 27 0 7 20 8 58 3
31 -4 64 -8 72 -9z m-1580 -70 c8 -10 21 -13 33 -9 16 5 19 3 15 -14 -3 -11 1
-30 9 -42 13 -19 13 -24 2 -31 -22 -14 -34 -5 -34 27 0 18 -5 29 -15 30 -8 1
-20 2 -26 3 -16 1 -25 51 -9 51 7 0 18 -7 25 -15z m1445 -25 c-3 -5 7 -4 22 2
22 7 42 5 88 -11 33 -11 53 -21 45 -21 -57 -7 -80 -7 -80 1 0 5 -12 9 -27 9
-14 0 -23 -3 -20 -7 4 -3 2 -12 -3 -18 -11 -14 -3 -45 11 -45 5 0 9 -7 9 -16
0 -12 6 -15 24 -10 17 4 26 1 30 -10 4 -9 13 -14 21 -10 18 7 19 -4 3 -39 -11
-25 -30 -35 -25 -13 1 6 -6 14 -15 16 -13 2 -16 -1 -12 -12 5 -13 -1 -16 -33
-13 -49 5 -66 15 -59 34 4 9 -7 30 -24 50 -35 39 -39 90 -7 85 9 -2 17 3 17
11 0 17 21 38 32 31 4 -3 6 -9 3 -14z m33 -280 c4 -1 22 -1 41 0 48 3 30 -17
-23 -25 -41 -7 -86 6 -86 23 0 6 49 8 68 2z m-425 -42 c6 -42 -2 -50 -49 -46
-36 3 -39 5 -39 33 0 25 5 31 30 36 50 11 53 10 58 -23z m477 -48 c0 -5 -4
-10 -10 -10 -5 0 -10 5 -10 10 0 6 5 10 10 10 6 0 10 -4 10 -10z m-1544 -67
c-18 -27 -43 -67 -55 -90 -12 -24 -26 -43 -32 -43 -6 0 -7 5 -4 10 3 6 0 13
-9 16 -10 4 -12 12 -7 27 5 12 12 22 17 23 5 0 33 24 63 52 29 29 55 52 57 52
2 0 -11 -21 -30 -47z m1324 -17 c0 -3 -4 -8 -10 -11 -5 -3 -10 -1 -10 4 0 6 5
11 10 11 6 0 10 -2 10 -4z m-30 -16 c0 -5 -4 -10 -10 -10 -5 0 -10 5 -10 10 0
6 5 10 10 10 6 0 10 -4 10 -10z m-2340 -140 c0 -5 -2 -10 -4 -10 -3 0 -8 5
-11 10 -3 6 -1 10 4 10 6 0 11 -4 11 -10z m780 -20 c-13 -11 -26 -17 -29 -14
-7 6 28 34 42 34 6 0 0 -9 -13 -20z m-445 -257 c-23 -54 -36 -68 -47 -48 -7
11 0 25 24 50 18 19 34 35 35 35 2 0 -4 -17 -12 -37z m-395 -122 c5 -11 10
-34 10 -51 0 -30 -1 -31 -41 -27 -38 4 -40 3 -35 -19 4 -13 2 -24 -3 -24 -5 0
-11 19 -13 43 -4 36 0 46 25 70 35 32 43 33 57 8z m545 -11 c-3 -5 -11 -10
-16 -10 -6 0 -7 5 -4 10 3 6 11 10 16 10 6 0 7 -4 4 -10z m-640 -123 c-5 -16
-12 -24 -21 -20 -11 4 -11 7 1 20 8 8 15 19 15 25 0 6 2 9 5 6 4 -3 3 -17 0
-31z"/>
<path d="M3810 4935 c-8 -9 -8 -15 -2 -15 6 0 13 -12 15 -27 3 -17 4 -11 4 15
-1 23 -2 42 -3 42 -1 0 -7 -7 -14 -15z"/>
<path d="M3777 4899 c7 -7 15 -10 18 -7 3 3 -2 9 -12 12 -14 6 -15 5 -6 -5z"/>
<path d="M4176 4372 c-20 -31 -37 -43 -88 -62 -34 -13 -65 -25 -67 -27 -6 -4
-1 -96 5 -102 2 -3 18 3 34 12 43 26 69 9 67 -41 -1 -29 7 -48 35 -85 l36 -47
4 59 c2 33 10 67 18 76 13 16 15 16 27 -1 11 -16 13 -12 13 27 0 62 -18 121
-43 141 -20 16 -20 18 -3 18 15 0 16 3 6 15 -7 8 -10 21 -7 30 13 32 -14 23
-37 -13z"/>
<path d="M3485 4105 c34 -16 72 -21 45 -6 -8 5 -28 11 -45 14 l-30 6 30 -14z"/>
<path d="M4045 4081 c-3 -5 -1 -12 5 -16 5 -3 10 1 10 9 0 18 -6 21 -15 7z"/>
<path d="M4089 3918 c-6 -24 -5 -68 2 -68 5 0 9 -7 9 -16 0 -11 -5 -14 -16
-10 -12 4 -15 2 -10 -9 3 -8 2 -15 -2 -15 -11 0 -34 -41 -28 -48 4 -3 20 7 36
23 16 16 32 26 35 23 4 -3 10 -43 14 -89 l9 -84 0 113 c0 74 4 117 12 127 10
12 10 15 -2 15 -8 0 -19 -5 -26 -12 -17 -17 -24 -4 -13 26 9 21 8 26 -4 26 -8
0 -15 -1 -16 -2z"/>
<path d="M3431 3866 c2 -2 22 -6 44 -9 28 -5 34 -4 20 3 -19 8 -73 14 -64 6z"/>
<path d="M4283 3635 c0 -27 2 -38 4 -22 2 15 2 37 0 50 -2 12 -4 0 -4 -28z"/>
<path d="M4293 3485 c0 -33 2 -45 4 -27 2 18 2 45 0 60 -2 15 -4 0 -4 -33z"/>
<path d="M3718 3503 c6 -2 18 -2 25 0 6 3 1 5 -13 5 -14 0 -19 -2 -12 -5z"/>
<path d="M4303 3380 c0 -25 2 -35 4 -22 2 12 2 32 0 45 -2 12 -4 2 -4 -23z"/>
<path d="M3953 3109 c-24 -4 -51 -13 -60 -19 -14 -8 7 -10 82 -5 55 3 120 9
145 12 43 7 44 7 15 14 -41 9 -131 9 -182 -2z"/>
<path d="M4298 3103 c6 -2 18 -2 25 0 6 3 1 5 -13 5 -14 0 -19 -2 -12 -5z"/>
<path d="M3645 3084 c-35 -7 -95 -28 -95 -34 0 -3 17 -4 38 -3 86 8 122 15
117 22 -5 9 -44 19 -60 15z"/>
<path d="M3031 2998 c-18 -40 -63 -113 -101 -163 -102 -135 -108 -149 -116
-245 -6 -82 -8 -147 -4 -220 1 -19 -2 -63 -5 -97 -8 -67 15 -167 40 -177 11
-4 13 16 9 96 -2 55 -7 104 -10 109 -3 5 2 34 10 63 13 44 14 64 5 105 -6 28
-17 57 -24 64 -10 11 -6 26 24 84 20 38 52 96 71 127 58 95 133 248 146 300
13 52 -14 25 -45 -46z"/>
<path d="M2958 3033 c-24 -38 -82 -103 -93 -103 -5 0 -4 5 3 12 14 14 16 52 3
43 -5 -3 -13 0 -17 7 -14 22 -22 -31 -22 -137 1 -55 3 -89 5 -75 2 14 31 59
63 100 61 76 84 123 78 161 -3 19 -4 18 -20 -8z"/>
<path d="M3116 2984 c-8 -21 -8 -21 7 -27 10 -4 13 2 9 19 -5 28 -8 30 -16 8z"/>
<path d="M3071 2883 c-11 -26 -10 -36 3 -60 8 -15 15 -24 16 -19 0 5 6 3 14
-3 15 -12 12 4 -11 83 l-9 30 -13 -31z"/>
<path d="M2988 2755 c-13 -24 -12 -33 6 -86 24 -64 36 -82 36 -53 0 16 2 16
10 4 20 -32 20 2 0 72 -27 89 -34 98 -52 63z"/>
<path d="M2897 2631 c-16 -28 -16 -32 3 -93 13 -43 20 -91 20 -153 0 -92 14
-135 44 -135 8 0 17 -7 20 -16 3 -9 12 -14 19 -11 6 2 21 -3 32 -12 11 -9 3 4
-16 29 -56 70 -71 104 -59 136 15 38 7 151 -16 223 -10 33 -21 61 -24 61 -3 0
-13 -13 -23 -29z m101 -381 c7 -11 11 -20 9 -20 -2 0 -12 9 -22 20 -10 11 -14
20 -9 20 5 0 15 -9 22 -20z"/>
<path d="M3412 2628 c-17 -17 -15 -33 2 -19 9 8 16 8 20 2 8 -12 36 -3 36 11
0 6 -6 8 -14 5 -7 -3 -18 -1 -23 4 -5 5 -14 4 -21 -3z"/>
<path d="M3510 2589 c-25 -5 -66 -11 -92 -15 -27 -4 -48 -11 -48 -16 0 -5 8
-7 18 -4 9 2 51 7 92 11 96 8 130 14 130 26 0 11 -37 10 -100 -2z"/>
<path d="M3061 2539 c1 -26 14 -44 32 -46 17 -1 16 2 -5 25 -13 15 -24 29 -25
31 -2 2 -3 -2 -2 -10z"/>
<path d="M3453 2543 c-26 -10 -12 -19 22 -15 19 2 35 8 35 13 0 9 -36 11 -57
2z"/>
<path d="M3380 2520 c0 -5 5 -10 11 -10 5 0 7 5 4 10 -3 6 -8 10 -11 10 -2 0
-4 -4 -4 -10z"/>
<path d="M3040 2510 c0 -5 5 -10 10 -10 6 0 10 5 10 10 0 6 -4 10 -10 10 -5 0
-10 -4 -10 -10z"/>
<path d="M3191 2504 c0 -11 3 -14 6 -6 3 7 2 16 -1 19 -3 4 -6 -2 -5 -13z"/>
<path d="M3001 2412 c-8 -15 -7 -23 4 -32 13 -11 14 -10 9 4 -3 9 -2 16 3 16
5 0 14 -17 19 -37 7 -28 14 -37 32 -38 12 -1 29 -10 38 -21 10 -12 9 -7 -3 12
-10 17 -35 50 -55 73 -34 40 -37 41 -47 23z"/>
<path d="M3147 2424 c-3 -5 1 -15 9 -22 16 -14 18 -5 5 17 -5 7 -11 9 -14 5z"/>
<path d="M3130 2246 c0 -8 4 -17 9 -20 5 -4 7 3 4 14 -6 23 -13 26 -13 6z"/>
<path d="M2881 2205 c-1 -39 11 -57 32 -49 22 8 21 13 -8 49 l-24 30 0 -30z"/>
<path d="M3050 2185 c0 -6 6 -17 12 -23 10 -10 10 -15 1 -20 -9 -6 -9 -18 3
-50 8 -24 19 -49 24 -55 6 -7 18 -21 26 -32 l16 -20 -7 20 c-3 11 -13 44 -20
74 -14 49 -54 129 -55 106z"/>
<path d="M3221 2174 c0 -11 3 -14 6 -6 3 7 2 16 -1 19 -3 4 -6 -2 -5 -13z"/>
<path d="M3168 2114 c-7 -6 16 -91 27 -102 7 -8 -5 78 -14 96 -4 7 -10 10 -13
6z"/>
<path d="M3001 2025 c-1 -22 5 -62 12 -89 11 -42 14 -46 26 -33 15 19 0 112
-24 143 -13 17 -14 16 -14 -21z"/>
<path d="M3120 1970 c0 -8 5 -22 10 -30 9 -13 10 -13 10 0 0 8 -5 22 -10 30
-9 13 -10 13 -10 0z"/>
<path d="M2376 3395 c4 -40 16 -75 34 -105 15 -25 51 -91 81 -147 29 -56 54
-101 55 -100 1 1 -9 45 -22 97 -26 100 -87 234 -129 285 l-25 30 6 -60z"/>
<path d="M2312 3058 c1 -35 -2 -80 -5 -100 -4 -23 -3 -38 3 -38 6 0 11 -8 12
-17 3 -36 13 134 9 175 -5 66 -21 49 -19 -20z"/>
<path d="M2412 2805 c0 -16 2 -22 5 -12 2 9 2 23 0 30 -3 6 -5 -1 -5 -18z"/>
<path d="M2536 2601 c-4 -5 -2 -12 3 -15 5 -4 12 -2 15 3 4 5 2 12 -3 15 -5 4
-12 2 -15 -3z"/>
<path d="M5295 2982 c-84 -7 -115 -14 -115 -27 0 -20 68 -27 130 -13 30 7 81
11 114 10 38 -1 66 4 80 13 20 15 20 15 -4 16 -63 3 -178 4 -205 1z"/>
<path d="M4901 2948 c-8 -23 5 -39 36 -44 11 -2 25 45 16 58 -10 17 -44 7 -52
-14z"/>
<path d="M5061 2959 c-32 -13 -15 -30 30 -32 28 -2 34 2 34 18 0 23 -27 29
-64 14z"/>
<path d="M5005 2951 c-6 -11 9 -23 19 -14 9 9 7 23 -3 23 -6 0 -12 -4 -16 -9z"/>
<path d="M5458 2923 c-10 -2 -18 -7 -18 -9 0 -12 28 -33 35 -26 4 4 12 7 18 7
7 0 13 8 15 18 3 17 -12 20 -50 10z"/>
<path d="M5292 2910 c-34 -4 -64 -9 -67 -12 -7 -7 27 -121 41 -137 7 -8 17
-10 25 -5 7 4 24 9 37 10 30 3 51 21 50 42 0 9 3 29 6 45 4 15 2 27 -4 27 -5
0 -10 6 -10 14 0 21 -8 23 -78 16z"/>
<path d="M4947 2828 c-8 -23 5 -78 19 -78 8 0 14 -4 14 -10 0 -5 5 -10 10 -10
6 0 8 16 4 43 -7 42 -19 67 -34 67 -4 0 -10 -6 -13 -12z"/>
<path d="M5240 2750 c0 -5 5 -10 11 -10 5 0 7 5 4 10 -3 6 -8 10 -11 10 -2 0
-4 -4 -4 -10z"/>
<path d="M4940 2729 c0 -5 5 -7 10 -4 6 3 10 8 10 11 0 2 -4 4 -10 4 -5 0 -10
-5 -10 -11z"/>
<path d="M5328 2273 c-28 -4 -37 -26 -17 -38 5 -4 22 -2 37 3 15 6 36 13 47
17 16 5 17 8 5 15 -15 10 -24 10 -72 3z"/>
<path d="M4995 1950 c-3 -5 -1 -10 4 -10 6 0 11 5 11 10 0 6 -2 10 -4 10 -3 0
-8 -4 -11 -10z"/>
<path d="M5221 1142 c-1 -9 -8 -11 -23 -6 -19 6 -21 5 -11 -8 7 -8 10 -18 6
-21 -3 -4 2 -9 11 -13 26 -10 38 8 27 37 -5 13 -10 18 -10 11z"/>
<path d="M5974 7227 c1 -97 4 -119 26 -164 13 -28 33 -57 45 -62 11 -6 34 -20
50 -31 17 -11 37 -23 45 -27 8 -4 26 -17 39 -29 31 -29 69 -49 78 -41 3 4 1
76 -6 159 -7 84 -15 188 -18 231 l-6 77 -127 0 -127 0 1 -113z"/>
<path d="M4551 7094 c0 -11 3 -14 6 -6 3 7 2 16 -1 19 -3 4 -6 -2 -5 -13z"/>
<path d="M4442 6485 c-93 -17 -103 -21 -96 -40 3 -8 1 -15 -5 -15 -6 0 -11 7
-11 15 0 18 -5 18 -31 5 -22 -12 -26 -32 -4 -24 20 8 19 -6 -2 -21 -16 -12
-16 -18 -5 -66 25 -104 25 -118 1 -66 -24 52 -43 64 -28 17 5 -16 14 -45 19
-62 6 -18 10 -44 10 -58 0 -14 9 -42 20 -63 11 -20 20 -55 20 -77 0 -22 5 -40
10 -40 6 0 10 4 10 9 0 5 17 31 39 58 31 39 37 53 29 67 -7 12 -7 21 0 28 15
15 35 -1 29 -24 -4 -16 -3 -17 9 -7 8 6 14 19 14 29 0 26 39 33 59 11 12 -14
42 -21 121 -29 134 -14 166 -28 229 -99 l52 -58 -2 40 c-3 57 31 120 80 144
49 25 94 70 111 111 13 31 8 47 -49 159 -10 20 -67 39 -116 40 -22 1 -78 8
-125 16 -103 18 -288 18 -388 0z m-2 -35 c-8 -5 -28 -10 -45 -10 -23 0 -27 3
-15 10 8 5 29 10 45 10 23 0 27 -3 15 -10z m-40 -296 c0 -8 -4 -12 -10 -9 -5
3 -10 13 -10 21 0 8 5 12 10 9 6 -3 10 -13 10 -21z m-45 -41 c3 -13 2 -23 -3
-23 -5 0 -14 17 -20 37 -9 31 -9 34 2 22 8 -8 17 -24 21 -36z"/>
<path d="M6286 6475 c4 -8 8 -15 10 -15 2 0 4 7 4 15 0 8 -4 15 -10 15 -5 0
-7 -7 -4 -15z"/>
<path d="M4245 6420 c3 -5 8 -10 11 -10 2 0 4 5 4 10 0 6 -5 10 -11 10 -5 0
-7 -4 -4 -10z"/>
<path d="M6003 6347 c3 -32 8 -61 12 -65 4 -4 4 20 1 52 -3 32 -8 61 -12 65
-3 3 -4 -20 -1 -52z"/>
<path d="M6236 6375 c4 -9 0 -15 -7 -15 -12 0 -12 -2 0 -9 7 -5 10 -14 7 -20
-4 -6 0 -11 8 -11 9 0 16 5 16 11 0 6 7 9 15 5 11 -4 8 4 -7 24 -23 32 -41 40
-32 15z"/>
<path d="M6060 6309 c0 -5 5 -7 10 -4 6 3 10 8 10 11 0 2 -4 4 -10 4 -5 0 -10
-5 -10 -11z"/>
<path d="M6230 6273 c5 -2 8 -9 4 -14 -3 -5 0 -9 6 -9 15 0 7 23 -8 26 -7 1
-8 0 -2 -3z"/>
<path d="M6066 6257 c3 -10 9 -15 12 -12 3 3 0 11 -7 18 -10 9 -11 8 -5 -6z"/>
<path d="M6070 6200 c0 -16 4 -30 8 -30 5 0 7 14 4 30 -2 17 -6 30 -8 30 -2 0
-4 -13 -4 -30z"/>
<path d="M5928 6184 c-16 -15 -8 -40 12 -40 11 0 20 6 20 14 0 7 -4 11 -9 7
-5 -3 -11 2 -13 11 -2 9 -6 12 -10 8z"/>
<path d="M5890 6151 c0 -6 -10 -12 -22 -12 -17 -1 -18 -3 -6 -6 23 -6 55 12
39 21 -6 4 -11 2 -11 -3z"/>
<path d="M6074 6140 c3 -14 10 -83 16 -155 10 -132 42 -493 60 -685 5 -58 13
-150 17 -205 6 -75 9 -90 13 -60 4 35 8 40 34 43 22 3 26 6 15 13 -12 8 -12
10 1 19 8 5 22 7 31 4 10 -3 26 6 40 23 33 40 69 63 97 63 22 0 23 3 18 43 -6
42 -29 279 -46 482 -12 141 -26 223 -42 242 -9 11 -9 16 1 23 10 6 11 23 3 81
l-10 74 0 -65 c0 -84 -7 -103 -34 -89 -11 6 -24 24 -30 40 -6 19 -15 28 -24
25 -7 -3 -16 -1 -19 4 -4 6 -12 10 -18 10 -7 0 -6 -4 3 -10 8 -5 11 -10 5 -10
-5 0 1 -7 14 -14 32 -18 7 -26 -39 -13 -24 7 -29 12 -17 14 9 3 17 9 17 15 0
6 -8 7 -17 3 -10 -4 -24 -8 -31 -9 -8 -1 -17 -8 -22 -15 -5 -10 -9 -10 -15 -2
-4 7 -3 17 2 24 8 10 10 32 4 40 -2 1 -5 13 -7 27 -3 13 -9 29 -15 35 -7 7 -9
2 -5 -15z m69 -154 c15 -22 15 -24 -2 -29 -14 -3 -18 1 -17 24 1 16 2 29 2 29
1 0 9 -11 17 -24z m37 20 c0 -11 -19 -15 -25 -6 -3 5 1 10 9 10 9 0 16 -2 16
-4z m30 -26 c0 -5 -4 -10 -10 -10 -5 0 -10 5 -10 10 0 6 5 10 10 10 6 0 10 -4
10 -10z m55 0 c-3 -5 2 -10 11 -10 10 0 15 -3 11 -6 -10 -10 -39 5 -32 16 3 5
8 10 11 10 3 0 2 -4 -1 -10z m-51 -29 c3 -4 -6 -6 -19 -3 -14 2 -25 6 -25 8 0
8 39 4 44 -5z m92 0 c-7 -11 18 -33 27 -24 4 3 7 1 7 -5 0 -17 -10 -15 -44 7
-25 17 -26 20 -10 24 11 3 20 5 22 6 2 0 1 -3 -2 -8z m-52 -17 c5 -14 4 -15
-9 -4 -17 14 -19 20 -6 20 5 0 12 -7 15 -16z m-114 -24 c12 -7 10 -9 -8 -7
-12 0 -22 5 -22 9 0 11 12 10 30 -2z m75 -10 c3 -5 1 -10 -4 -10 -6 0 -11 5
-11 10 0 6 2 10 4 10 3 0 8 -4 11 -10z m123 -25 c-3 -3 -9 2 -12 12 -6 14 -5
15 5 6 7 -7 10 -15 7 -18z"/>
<path d="M5985 6130 c-3 -5 -1 -10 4 -10 6 0 11 5 11 10 0 6 -2 10 -4 10 -3 0
-8 -4 -11 -10z"/>
<path d="M5758 6093 c7 -3 16 -2 19 1 4 3 -2 6 -13 5 -11 0 -14 -3 -6 -6z"/>
<path d="M6270 6079 c0 -5 5 -7 10 -4 6 3 10 8 10 11 0 2 -4 4 -10 4 -5 0 -10
-5 -10 -11z"/>
<path d="M5468 6053 c6 -2 18 -2 25 0 6 3 1 5 -13 5 -14 0 -19 -2 -12 -5z"/>
<path d="M5600 6050 c0 -5 5 -10 11 -10 5 0 7 5 4 10 -3 6 -8 10 -11 10 -2 0
-4 -4 -4 -10z"/>
<path d="M5636 6052 c-3 -6 -1 -14 5 -17 15 -10 25 3 12 16 -7 7 -13 7 -17 1z"/>
<path d="M6270 6026 c0 -7 9 -16 21 -19 15 -4 19 -2 15 10 -3 8 -6 17 -6 19 0
2 -7 4 -15 4 -8 0 -15 -6 -15 -14z"/>
<path d="M140 5990 c0 -5 5 -10 11 -10 5 0 7 5 4 10 -3 6 -8 10 -11 10 -2 0
-4 -4 -4 -10z"/>
<path d="M980 5818 c0 -18 -2 -20 -9 -9 -25 39 -26 -89 -2 -140 13 -26 49 -54
58 -45 6 5 -11 131 -21 161 -5 15 -4 14 5 -2 17 -31 26 -29 26 7 0 17 -3 26
-7 21 -3 -6 -12 -2 -20 9 -19 26 -30 25 -30 -2z"/>
<path d="M1050 5816 c0 -9 5 -16 10 -16 6 0 10 4 10 9 0 6 -4 13 -10 16 -5 3
-10 -1 -10 -9z"/>
<path d="M1050 5714 c0 -9 -5 -12 -12 -8 -7 4 -8 3 -4 -4 10 -16 14 -15 26 8
7 14 7 20 0 20 -5 0 -10 -7 -10 -16z"/>
<path d="M1080 5534 c0 -7 40 -44 47 -44 2 0 -4 11 -14 25 -17 23 -33 32 -33
19z"/>
<path d="M803 5394 c-9 -20 -8 -24 4 -24 26 0 4 -18 -32 -24 -19 -4 -40 -14
-47 -24 -7 -9 -27 -24 -43 -32 -18 -10 -30 -24 -30 -35 0 -22 -18 -45 -33 -45
-6 0 -10 -16 -9 -35 1 -19 5 -35 10 -35 4 0 5 -5 2 -10 -4 -6 -3 -10 2 -9 26
4 53 -2 48 -12 -7 -11 -65 -7 -97 6 -11 4 -18 3 -18 -4 0 -6 5 -11 10 -11 6 0
24 -10 40 -21 l29 -22 34 30 c64 56 171 49 164 -10 -1 -16 3 -22 16 -21 20 2
57 -67 122 -226 l34 -85 1 53 c0 65 25 188 52 262 39 104 39 104 -36 140 -67
32 -106 72 -142 145 -33 67 -63 86 -81 49z"/>
<path d="M4374 5365 c-4 -8 -3 -23 0 -32 6 -15 8 -15 16 -3 13 20 12 50 0 50
-6 0 -13 -7 -16 -15z"/>
<path d="M1351 5354 c0 -11 3 -14 6 -6 3 7 2 16 -1 19 -3 4 -6 -2 -5 -13z"/>
<path d="M4428 5260 c-7 -24 -3 -38 8 -28 3 4 4 17 2 30 l-3 23 -7 -25z"/>
<path d="M4521 5194 c0 -11 3 -14 6 -6 3 7 2 16 -1 19 -3 4 -6 -2 -5 -13z"/>
<path d="M530 5119 c0 -5 5 -7 10 -4 6 3 10 8 10 11 0 2 -4 4 -10 4 -5 0 -10
-5 -10 -11z"/>
<path d="M2485 5059 c-4 -11 -13 -18 -20 -16 -7 3 -18 0 -24 -6 -7 -7 -12 -7
-11 -2 5 22 0 36 -10 30 -6 -4 -8 -10 -6 -14 7 -10 -55 -8 -71 2 -9 6 -11 3
-6 -9 5 -14 2 -16 -15 -12 -12 4 -20 3 -18 -1 3 -4 -9 -20 -27 -37 -17 -16
-28 -24 -24 -17 4 6 3 14 -3 18 -9 6 -14 -7 -11 -27 0 -5 -6 -8 -14 -8 -8 0
-15 -4 -15 -9 0 -5 -9 -7 -20 -4 -12 3 -20 0 -20 -6 0 -7 -4 -9 -10 -6 -5 3
-10 -2 -10 -12 0 -10 -4 -24 -9 -32 -8 -13 -12 -13 -26 -1 -15 12 -16 11 -10
-13 4 -14 2 -34 -4 -44 -8 -14 -10 -14 -11 -3 0 8 -9 -4 -21 -27 -12 -24 -27
-43 -35 -43 -8 0 -14 -5 -14 -11 0 -6 -11 -20 -24 -30 -23 -18 -42 -59 -26
-59 4 0 19 9 33 20 14 11 30 20 36 20 6 0 11 3 11 8 0 4 21 18 48 31 26 14 52
31 58 38 7 8 22 16 35 18 12 3 26 10 31 17 4 7 8 9 8 3 0 -6 3 -6 8 0 10 15
65 39 80 36 8 -1 22 5 32 14 16 15 19 14 37 -11 14 -18 26 -25 37 -21 23 9 20
38 -4 44 -16 4 -18 8 -9 19 15 18 29 18 29 -1 0 -8 4 -15 9 -15 5 0 7 9 4 19
-5 21 53 85 69 75 5 -3 19 1 31 8 12 8 41 20 65 27 44 12 53 34 16 38 -10 1
-31 5 -46 9 -20 4 -28 2 -28 -7 0 -11 -2 -11 -9 0 -8 12 -14 13 -36 3 -24 -11
-26 -11 -20 8 3 11 4 20 1 20 -2 0 -8 -9 -11 -21z"/>
<path d="M430 5029 c0 -5 5 -7 10 -4 6 3 10 8 10 11 0 2 -4 4 -10 4 -5 0 -10
-5 -10 -11z"/>
<path d="M275 5010 c3 -5 8 -10 11 -10 2 0 4 5 4 10 0 6 -5 10 -11 10 -5 0 -7
-4 -4 -10z"/>
<path d="M185 5000 c-8 -13 15 -13 35 0 12 8 11 10 -7 10 -12 0 -25 -4 -28
-10z"/>
<path d="M2496 4937 c3 -10 9 -15 12 -12 3 3 0 11 -7 18 -10 9 -11 8 -5 -6z"/>
<path d="M2127 4933 c-10 -10 -8 -33 2 -33 6 0 9 9 8 20 -1 23 -1 22 -10 13z"/>
<path d="M2495 4890 c-3 -5 -1 -10 4 -10 6 0 11 5 11 10 0 6 -2 10 -4 10 -3 0
-8 -4 -11 -10z"/>
<path d="M405 4870 c-64 -13 -138 -23 -160 -22 -11 1 -33 1 -50 0 -16 0 -40
-1 -53 0 -13 0 -22 -1 -20 -3 17 -14 141 -95 146 -95 4 0 30 17 57 38 28 20
67 45 88 54 20 10 37 22 37 28 0 5 -1 9 -2 9 -2 -1 -21 -5 -43 -9z"/>
<path d="M2495 4860 c-3 -6 0 -13 9 -16 8 -3 40 -30 71 -60 52 -51 61 -55 109
-58 59 -3 76 -10 76 -32 0 -8 5 -12 10 -9 6 4 17 1 25 -5 12 -10 15 -9 15 4 0
20 5 20 35 0 21 -14 25 -14 25 -2 0 18 -35 51 -77 72 -18 9 -68 21 -110 26
-73 9 -81 12 -116 50 -37 40 -60 49 -72 30z"/>
<path d="M6291 4444 c0 -11 3 -14 6 -6 3 7 2 16 -1 19 -3 4 -6 -2 -5 -13z"/>
<path d="M6480 4325 c0 -8 4 -15 10 -15 5 0 7 7 4 15 -4 8 -8 15 -10 15 -2 0
-4 -7 -4 -15z"/>
<path d="M350 4286 c0 -29 6 -51 18 -62 16 -17 16 -18 -1 -11 -20 8 -37 -25
-37 -73 0 -22 -4 -28 -15 -24 -13 5 -15 -8 -15 -84 0 -50 4 -93 8 -96 7 -4 19
18 37 69 12 37 34 -23 35 -96 0 -74 -17 -112 -43 -91 -12 11 -16 6 -26 -32 -6
-24 -13 -97 -16 -162 -3 -66 -8 -127 -11 -138 -3 -10 -2 -16 3 -13 5 3 7 -22
5 -59 -5 -78 10 -85 26 -11 20 91 41 245 35 265 -2 11 0 23 6 26 6 4 11 2 11
-3 0 -6 3 -11 8 -11 7 0 15 15 56 118 l25 63 -20 61 c-10 33 -19 75 -19 93 0
18 -3 59 -6 93 -5 49 -10 59 -22 54 -10 -3 -13 -1 -8 6 4 7 2 12 -5 12 -10 0
-10 3 -1 12 10 10 15 10 22 -2 7 -11 10 -7 10 17 0 26 -5 34 -23 38 -19 5 -24
14 -25 40 -1 33 0 34 41 38 l42 4 -47 1 -48 2 0 -44z"/>
<path d="M590 4298 c-15 -20 -17 -20 -49 -4 -41 22 -48 16 -17 -13 23 -22 23
-24 10 -73 -13 -52 -12 -68 8 -68 6 0 8 3 5 7 -4 3 4 21 18 39 14 18 25 46 25
62 0 16 7 35 15 42 16 13 20 30 8 30 -5 -1 -15 -10 -23 -22z"/>
<path d="M1196 4227 c3 -10 9 -15 12 -12 3 3 0 11 -7 18 -10 9 -11 8 -5 -6z"/>
<path d="M1231 4148 c12 -29 23 -59 26 -65 5 -13 23 -18 23 -8 0 10 -60 125
-65 125 -3 0 5 -24 16 -52z"/>
<path d="M495 4130 c-3 -5 -1 -10 4 -10 6 0 11 5 11 10 0 6 -2 10 -4 10 -3 0
-8 -4 -11 -10z"/>
<path d="M502 4076 c1 -19 5 -33 10 -30 11 7 10 51 -2 59 -5 3 -9 -9 -8 -29z"/>
<path d="M86 4025 c-11 -29 -6 -98 13 -185 16 -70 18 -116 15 -260 -2 -96 -5
-182 -6 -190 -4 -38 4 -58 27 -68 24 -11 25 -10 26 26 1 20 1 39 1 42 0 3 -3
53 -6 110 -21 376 -29 506 -32 509 -2 2 -4 -8 -4 -24 0 -37 -10 -27 -15 15 -5
39 -10 46 -19 25z"/>
<path d="M1635 3870 c3 -5 8 -10 11 -10 2 0 4 5 4 10 0 6 -5 10 -11 10 -5 0
-7 -4 -4 -10z"/>
<path d="M2687 3863 c-4 -3 -7 -11 -7 -17 0 -6 5 -5 12 2 6 6 9 14 7 17 -3 3
-9 2 -12 -2z"/>
<path d="M1521 3851 c-15 -10 -7 -31 12 -31 7 0 13 9 13 20 0 22 -4 24 -25 11z"/>
<path d="M511 3745 c0 -35 2 -37 11 -19 7 15 7 28 -1 40 -9 16 -10 12 -10 -21z"/>
<path d="M2440 3739 c0 -5 5 -7 10 -4 6 3 10 8 10 11 0 2 -4 4 -10 4 -5 0 -10
-5 -10 -11z"/>
<path d="M535 3679 c-5 -15 -9 -18 -15 -9 -5 9 -20 -5 -45 -44 -21 -31 -41
-56 -45 -56 -4 0 -12 12 -19 26 -17 37 -21 27 -11 -26 5 -25 10 -83 11 -130 2
-74 -5 -110 -50 -284 -28 -110 -62 -231 -75 -270 -13 -39 -33 -116 -46 -171
-12 -55 -33 -145 -46 -200 -13 -55 -33 -163 -44 -240 -11 -77 -22 -147 -25
-155 -2 -8 -6 -32 -10 -54 -3 -21 -7 -42 -10 -45 -4 -7 -10 -39 -35 -191 -6
-36 -24 -120 -41 -187 -27 -111 -29 -135 -27 -265 l3 -143 22 80 c12 44 29
123 37 175 29 187 65 386 81 445 9 33 24 101 35 150 40 189 51 232 98 395 16
58 33 123 37 145 3 22 18 78 32 125 61 206 107 435 102 503 -2 26 -1 47 2 47
7 0 46 -141 54 -200 9 -59 -10 -190 -42 -298 -14 -48 -36 -134 -49 -192 -27
-117 -97 -374 -150 -550 -19 -63 -38 -128 -43 -145 -5 -16 -12 -46 -16 -65 -4
-19 -15 -63 -25 -97 -25 -83 -48 -192 -71 -343 -21 -141 -34 -212 -44 -252 -6
-24 -3 -28 19 -34 15 -3 29 -5 30 -3 2 2 7 31 11 64 18 168 61 361 124 550 75
230 107 338 141 480 38 162 84 332 120 450 15 50 31 103 34 119 9 38 21 24 17
-20 -2 -24 2 -36 13 -40 12 -5 16 -21 16 -71 0 -69 -24 -166 -67 -268 -30 -70
-64 -199 -99 -374 -26 -134 -58 -236 -135 -428 -49 -123 -107 -308 -130 -415
-10 -46 -10 -60 1 -73 20 -24 38 -18 45 17 12 58 77 244 154 437 44 110 64
179 111 386 32 138 85 315 130 430 15 39 30 79 34 89 8 24 16 16 25 -26 l7
-33 22 49 c12 27 20 51 17 54 -3 3 -5 0 -5 -6 0 -7 -3 -12 -7 -12 -15 0 -14
135 1 205 8 38 13 71 12 73 -2 1 -15 -3 -29 -9 -37 -17 -54 -6 -65 43 -6 26
-10 34 -11 19 -1 -20 -3 -21 -16 -11 -29 24 -16 57 19 51 4 -1 5 11 1 26 -9
35 -27 149 -29 185 0 14 -4 24 -8 22 -13 -8 -25 30 -27 84 -2 49 0 53 17 48
25 -8 32 15 32 112 0 75 -13 96 -24 40 l-7 -33 -24 60 c-30 72 -31 125 -6 225
18 70 22 109 6 59z m-15 -40 c0 -6 -4 -7 -10 -4 -5 3 -10 11 -10 16 0 6 5 7
10 4 6 -3 10 -11 10 -16z"/>
<path d="M6560 3496 c0 -9 5 -16 10 -16 6 0 10 4 10 9 0 6 -4 13 -10 16 -5 3
-10 -1 -10 -9z"/>
<path d="M1623 3171 c5 -23 2 -31 -11 -36 -9 -3 -30 -17 -47 -31 -16 -15 -25
-23 -18 -20 6 3 27 -10 45 -29 l34 -36 24 26 c24 26 24 26 6 60 -11 19 -19 48
-18 65 0 16 -4 30 -10 30 -6 0 -8 -12 -5 -29z"/>
<path d="M1442 3075 l-21 -16 24 -28 c14 -15 32 -36 41 -47 10 -12 14 -14 11
-4 -2 8 -7 26 -11 40 l-7 25 21 -24 c11 -13 25 -31 30 -40 17 -31 18 -5 3 52
-15 51 -19 57 -42 57 -15 0 -36 -7 -49 -15z"/>
<path d="M1283 3018 c-13 -6 -23 -15 -23 -20 0 -5 20 -48 44 -96 24 -48 46
-94 50 -102 3 -8 4 -4 2 9 -3 13 1 30 9 37 16 16 29 19 20 4 -3 -5 -1 -10 4
-10 6 0 11 -5 11 -11 0 -6 -7 -9 -15 -5 -23 8 -18 -8 10 -32 14 -12 25 -29 25
-37 0 -8 7 -15 15 -15 8 0 15 -6 15 -14 0 -8 4 -18 10 -21 11 -7 -5 42 -21 61
-13 16 -72 205 -73 236 -1 24 -5 28 -31 27 -16 0 -40 -5 -52 -11z"/>
<path d="M1150 2961 c-58 -15 -67 -21 -87 -56 -23 -43 -29 -70 -13 -60 5 3 18
0 29 -7 17 -10 23 -7 47 23 16 19 45 51 66 73 53 54 55 52 -42 27z"/>
<path d="M7331 2924 c0 -11 3 -14 6 -6 3 7 2 16 -1 19 -3 4 -6 -2 -5 -13z"/>
<path d="M2075 2888 c-14 -41 -74 -163 -109 -217 -35 -56 -38 -85 -8 -73 15 5
15 4 3 -12 -13 -16 -13 -17 4 -14 25 4 55 34 56 56 0 14 2 14 9 -3 7 -17 9
-15 9 13 1 17 -3 32 -9 32 -5 0 0 17 11 37 12 20 23 44 25 53 21 84 30 141 24
145 -5 3 -12 -5 -15 -17z"/>
<path d="M914 2860 c-97 -50 -122 -95 -54 -95 22 -1 40 2 40 6 0 3 19 30 41
58 23 29 39 54 37 57 -3 2 -32 -9 -64 -26z"/>
<path d="M1220 2848 c-32 -44 -37 -73 -16 -100 16 -22 36 -23 36 -3 0 8 14 30
31 50 29 33 30 38 19 65 -17 41 -34 38 -70 -12z"/>
<path d="M174 2794 c-4 -10 -9 -22 -11 -26 -2 -5 0 -8 5 -8 10 0 24 41 17 48
-3 3 -8 -4 -11 -14z"/>
<path d="M1600 2778 c0 -3 6 -18 14 -33 9 -17 16 -22 21 -15 4 7 -2 21 -14 33
-11 12 -21 19 -21 15z"/>
<path d="M1329 2713 c-17 -19 -19 -25 -7 -20 12 4 15 2 11 -9 -3 -7 0 -14 7
-14 8 0 10 -9 6 -24 -4 -16 -1 -26 9 -30 12 -4 14 0 9 18 -4 17 1 28 20 44 24
18 38 51 17 38 -5 -3 -14 1 -21 9 -17 20 -23 19 -51 -12z m33 -25 c-8 -8 -9
-4 -5 13 4 13 8 18 11 10 2 -7 -1 -18 -6 -23z"/>
<path d="M142 2700 c0 -14 2 -19 5 -12 2 6 2 18 0 25 -3 6 -5 1 -5 -13z"/>
<path d="M120 2650 c0 -5 5 -10 10 -10 6 0 10 5 10 10 0 6 -4 10 -10 10 -5 0
-10 -4 -10 -10z"/>
<path d="M1452 2610 c-14 -23 -16 -47 -3 -55 17 -10 61 17 61 38 0 11 -3 17
-7 14 -3 -4 -14 0 -23 8 -14 13 -17 12 -28 -5z"/>
<path d="M110 2610 c0 -5 5 -10 10 -10 6 0 10 5 10 10 0 6 -4 10 -10 10 -5 0
-10 -4 -10 -10z"/>
<path d="M2187 2532 c-12 -18 7 -60 33 -75 26 -16 28 -16 34 0 5 12 -4 27 -28
50 -19 18 -37 30 -39 25z"/>
<path d="M81 2488 c-22 -78 -22 -84 4 -29 27 57 30 71 17 71 -5 0 -14 -19 -21
-42z"/>
<path d="M1484 2455 c25 -19 36 -19 36 0 0 10 -10 15 -27 15 -27 -1 -27 -1 -9
-15z"/>
<path d="M2171 2364 c-6 -15 -10 -28 -9 -29 10 -9 76 -39 99 -45 23 -7 27 -5
22 8 -5 11 -2 13 8 8 8 -4 -8 13 -36 38 -27 25 -54 46 -61 46 -6 0 -16 -12
-23 -26z"/>
<path d="M16 2305 c-3 -9 -6 -22 -5 -28 0 -7 5 -1 10 12 5 13 8 26 5 28 -2 2
-6 -3 -10 -12z"/>
<path d="M2379 2262 c-3 -31 -1 -100 3 -152 11 -137 32 -617 32 -738 1 -56 2
-102 3 -102 2 0 13 19 25 43 29 54 35 208 18 415 -7 81 -13 185 -14 232 -2 56
-10 106 -24 147 -15 41 -22 87 -22 132 0 85 -16 103 -21 23z"/>
<path d="M7751 2263 c-11 -12 -15 -13 -23 -1 -7 10 -8 8 -4 -5 3 -10 6 -21 6
-23 0 -3 10 4 22 16 12 11 20 22 17 24 -2 2 -10 -3 -18 -11z"/>
<path d="M2092 2213 c-38 -73 -84 -192 -77 -203 7 -11 45 -8 45 3 0 4 5 5 10
2 6 -3 10 -13 10 -22 0 -17 -35 -65 -42 -57 -3 2 -11 -2 -18 -11 -10 -13 -9
-15 7 -15 11 0 30 13 43 30 12 16 27 27 32 24 5 -3 12 4 15 15 5 21 7 21 24 5
13 -12 16 -21 9 -29 -13 -16 24 -60 42 -49 7 4 5 -2 -5 -14 -11 -11 -16 -26
-12 -32 4 -6 2 -17 -4 -23 -5 -7 -10 -33 -9 -58 2 -83 -41 -270 -110 -481 -18
-54 -25 -88 -18 -88 6 0 38 8 71 18 l60 18 3 45 c4 61 12 80 22 54 5 -11 9
-32 9 -47 1 -16 6 -28 11 -28 15 0 12 74 -5 141 -12 44 -13 64 -5 79 14 26 27
18 36 -23 4 -17 9 -27 11 -20 2 6 -3 38 -12 72 -15 57 -14 64 4 118 23 69 39
143 51 235 5 38 12 74 16 80 4 8 3 10 -2 5 -5 -5 -14 -25 -21 -45 l-12 -37 6
45 c7 61 29 110 47 110 25 0 18 22 -19 62 -38 39 -43 50 -21 42 31 -12 28 20
-5 47 -37 31 -133 89 -147 89 -5 0 -23 -26 -40 -57z m175 -385 c-3 -7 -5 -2
-5 12 0 14 2 19 5 13 2 -7 2 -19 0 -25z"/>
<path d="M7828 2253 c7 -3 16 -2 19 1 4 3 -2 6 -13 5 -11 0 -14 -3 -6 -6z"/>
<path d="M7667 2243 c-4 -3 -2 -12 4 -19 14 -17 4 -44 -15 -44 -10 0 -13 -6
-9 -17 5 -12 2 -15 -9 -10 -12 4 -14 1 -11 -14 3 -10 9 -19 14 -19 5 0 8 -10
6 -22 -1 -17 3 -23 16 -22 10 1 16 -3 14 -10 -2 -6 -1 -21 4 -32 5 -14 2 -29
-9 -45 -14 -21 -14 -22 1 -16 9 3 17 2 17 -2 0 -5 -6 -11 -12 -13 -9 -3 -8
-12 5 -31 10 -15 13 -27 7 -27 -5 0 -10 -9 -10 -20 0 -11 5 -20 10 -20 6 0 10
-4 10 -10 0 -5 -7 -10 -15 -10 -8 0 -15 -4 -15 -10 0 -5 4 -10 10 -10 5 0 7
-7 3 -15 -3 -9 2 -24 11 -34 16 -18 13 -51 -5 -51 -6 0 -4 -6 3 -14 7 -8 18
-11 23 -8 6 2 5 -1 -2 -8 -10 -11 -9 -17 5 -29 18 -17 21 -47 25 -284 2 -116
3 -119 32 -152 36 -40 68 -49 141 -40 l55 7 -2 311 c0 172 -3 316 -6 321 -10
15 -13 77 -4 72 5 -3 4 16 0 42 -5 26 -7 52 -5 59 3 7 -5 15 -19 19 -14 3 -25
10 -25 16 0 5 5 6 10 3 6 -4 10 8 10 29 0 19 4 46 10 60 5 14 6 25 2 23 -4 -1
-7 1 -7 4 0 15 -40 49 -52 45 -7 -3 -15 -1 -18 4 -3 4 1 11 7 13 8 3 6 6 -4 6
-10 1 -18 7 -18 14 0 6 -5 4 -11 -6 -5 -9 -7 -23 -3 -30 4 -6 -3 -3 -16 8 -25
21 -25 22 -3 -32 5 -12 3 -14 -7 -8 -10 6 -12 4 -7 -9 4 -10 7 -20 7 -22 0 -3
5 -2 10 1 6 3 10 2 10 -3 0 -5 -10 -12 -22 -16 -34 -9 -50 -7 -43 4 3 6 0 10
-7 10 -8 0 -14 14 -15 36 -2 44 -13 57 -31 38 -7 -8 -9 -14 -3 -14 5 0 11 -7
15 -15 5 -13 2 -14 -15 -5 -14 8 -18 17 -14 31 4 10 2 19 -4 19 -6 0 -8 7 -5
15 6 15 -7 21 -19 8z m249 -94 c0 -24 -12 -25 -20 -1 -3 9 -9 23 -12 30 -5 11
-2 11 13 2 10 -7 19 -21 19 -31z m-196 -35 c0 -8 -4 -12 -10 -9 -5 3 -10 10
-10 16 0 5 5 9 10 9 6 0 10 -7 10 -16z m145 -4 c3 -5 1 -10 -4 -10 -6 0 -11 5
-11 10 0 6 2 10 4 10 3 0 8 -4 11 -10z m-149 -37 c-7 -7 -26 7 -26 19 0 6 6 6
15 -2 9 -7 13 -15 11 -17z m186 -15 c-6 -6 -15 -8 -19 -4 -4 4 -1 11 7 16 19
12 27 3 12 -12z m-202 -8 c0 -5 -2 -10 -4 -10 -3 0 -8 5 -11 10 -3 6 -1 10 4
10 6 0 11 -4 11 -10z m47 -12 c-3 -8 -6 -5 -6 6 -1 11 2 17 5 13 3 -3 4 -12 1
-19z m93 8 c0 -3 -4 -8 -10 -11 -5 -3 -10 -1 -10 4 0 6 5 11 10 11 6 0 10 -2
10 -4z m-116 -42 c8 -3 12 -12 9 -20 -4 -11 -9 -12 -19 -3 -8 6 -14 15 -14 20
0 11 3 11 24 3z m226 -49 c0 -11 -29 -11 -33 -1 -4 10 1 12 14 9 10 -3 19 -7
19 -8z"/>
<path d="M7800 2240 c0 -5 5 -10 11 -10 5 0 7 5 4 10 -3 6 -8 10 -11 10 -2 0
-4 -4 -4 -10z"/>
<path d="M7782 2160 c0 -14 2 -19 5 -12 2 6 2 18 0 25 -3 6 -5 1 -5 -13z"/>
<path d="M603 2109 c-41 -91 -111 -326 -168 -569 -9 -41 -23 -88 -30 -105 -8
-16 -30 -70 -51 -120 -20 -49 -52 -126 -71 -170 -18 -43 -30 -82 -25 -86 4 -4
20 -9 37 -11 23 -2 32 2 42 22 41 80 116 283 133 360 37 168 113 406 132 421
11 8 28 113 28 176 0 28 5 55 10 58 6 3 10 16 9 28 0 21 -1 21 -9 2 -7 -18 -8
-16 -11 10 -4 30 -4 30 -26 -16z"/>
<path d="M1231 2093 c-11 -21 -36 -58 -55 -83 -19 -24 -32 -48 -29 -53 3 -5
-3 -14 -13 -22 -17 -12 -15 -14 25 -25 29 -8 40 -14 32 -20 -8 -4 -11 -16 -7
-27 7 -23 -18 -51 -29 -33 -3 5 -11 10 -17 10 -7 0 -6 -6 2 -15 7 -8 19 -15
27 -15 8 0 13 -6 10 -12 -2 -7 5 -23 16 -35 l20 -23 -21 0 c-16 0 -20 -4 -15
-17 4 -11 3 -14 -5 -9 -8 5 -10 2 -6 -8 3 -9 11 -13 17 -9 6 3 7 1 3 -6 -10
-15 13 -43 27 -34 6 4 8 0 4 -11 -5 -12 0 -19 18 -26 17 -6 23 -14 18 -26 -4
-10 -8 -12 -13 -5 -4 7 -11 2 -18 -14 -6 -14 -19 -25 -27 -25 -10 0 -15 -7
-14 -17 3 -30 -1 -43 -11 -43 -5 0 -7 8 -3 18 4 13 3 14 -6 6 -14 -13 -3 -47
14 -41 6 3 12 -1 12 -9 0 -9 -7 -12 -19 -8 -20 6 -25 -11 -5 -20 6 -3 2 -3
-10 0 -18 4 -22 2 -17 -10 4 -10 1 -16 -7 -16 -8 0 -5 -6 7 -15 13 -10 14 -13
3 -10 -12 5 -15 0 -11 -23 2 -16 -1 -33 -7 -36 -6 -4 -11 -12 -11 -17 0 -6 5
-7 10 -4 20 12 10 -14 -11 -29 -12 -8 -18 -19 -15 -24 3 -5 8 -26 10 -46 5
-35 4 -36 -17 -25 -18 9 -20 9 -9 -2 17 -19 15 -34 -3 -19 -9 7 -18 10 -22 6
-3 -3 -1 -6 5 -6 7 0 12 -9 12 -20 0 -13 -7 -20 -20 -20 -11 0 -20 -4 -20 -10
0 -5 -6 -10 -14 -10 -8 0 -31 -10 -51 -22 -29 -16 -39 -18 -45 -8 -5 9 -9 9
-11 1 -3 -9 -16 -9 -52 0 -26 7 -47 17 -47 22 0 4 6 5 13 1 10 -6 10 -4 0 7
-18 19 -16 29 5 22 15 -6 15 -5 4 10 -9 10 -12 29 -8 49 3 18 3 26 -1 18 -3
-8 -14 -23 -24 -33 -14 -15 -12 -1 13 74 32 102 48 231 29 243 -6 4 -11 3 -11
-2 0 -6 -21 -47 -46 -91 -58 -104 -84 -219 -85 -381 -1 -108 -10 -153 -27
-147 -10 3 -68 -43 -64 -51 2 -4 -2 -8 -9 -11 -7 -2 -9 2 -5 10 4 8 -1 4 -12
-8 -13 -14 -23 -18 -29 -12 -7 7 -20 2 -39 -14 -16 -13 -56 -37 -89 -52 -33
-15 -63 -32 -67 -38 -4 -7 -8 -7 -8 -2 0 17 13 30 72 73 32 24 65 53 74 66 14
22 79 60 147 85 19 8 27 17 27 35 0 30 -16 43 -22 18 -3 -9 -38 -35 -79 -56
-41 -21 -91 -55 -111 -74 -46 -44 -51 -24 -9 34 35 49 77 85 141 121 42 23 50
33 50 56 l0 29 -44 -39 c-49 -43 -126 -80 -126 -60 0 6 26 36 59 67 77 73 83
86 75 164 -5 46 -2 77 9 112 9 27 17 63 19 79 2 17 8 33 13 38 6 4 5 11 -5 16
-8 6 -16 8 -18 6 -2 -2 -14 -56 -27 -121 -13 -64 -28 -120 -34 -123 -5 -3 -8
-25 -7 -48 3 -63 -21 -65 -29 -3 -7 49 2 88 41 176 8 18 17 76 20 130 8 141 9
147 22 171 16 30 15 42 -2 20 -12 -16 -15 -16 -23 -3 -6 11 -9 4 -9 -23 -1
-32 -45 -180 -74 -246 -8 -20 -25 -74 -50 -165 -7 -25 -14 -51 -16 -57 -2 -7
-14 -13 -28 -13 -26 0 -28 -12 -8 -45 11 -19 12 -18 24 13 8 20 18 30 26 27 8
-3 20 -5 28 -5 12 0 12 -5 -1 -31 -22 -41 -56 -79 -67 -73 -4 3 -8 0 -8 -7 0
-8 -5 -7 -17 2 -11 10 -14 10 -9 2 5 -9 1 -13 -13 -13 -10 0 -21 5 -23 11 -7
20 -61 -45 -98 -116 -19 -37 -81 -138 -137 -223 l-102 -156 0 -167 -1 -167 43
10 c23 5 71 18 107 28 90 26 329 86 420 105 141 28 205 13 272 -66 21 -24 45
-52 53 -61 8 -10 15 -19 14 -20 0 -2 4 -16 10 -31 6 -16 11 -32 11 -37 0 -5 5
-12 12 -16 7 -5 8 -2 3 7 -5 8 -4 11 0 6 11 -10 14 -47 3 -47 -6 0 -6 -25 1
-72 0 -5 166 -8 368 -8 335 0 424 5 311 17 -34 4 -53 14 -93 53 -27 26 -60 53
-71 59 -13 6 -26 26 -31 48 -5 23 -15 38 -23 38 -20 0 -32 18 -17 27 8 5 6 9
-7 14 -10 4 -73 -12 -157 -39 -118 -40 -143 -45 -164 -35 -14 6 -25 17 -25 23
0 7 -6 18 -14 24 -15 12 -10 51 6 51 5 0 6 -10 3 -21 -5 -14 -2 -25 6 -30 23
-15 35 -9 15 6 -19 14 -11 21 19 15 5 -1 15 6 21 15 9 13 13 13 17 2 3 -8 1
-20 -4 -28 -7 -11 -9 -11 -9 -1 0 7 -5 10 -12 6 -8 -5 -6 -11 5 -19 9 -7 13
-15 9 -19 -4 -4 5 -2 21 5 27 12 39 36 13 26 -12 -5 -13 -1 -7 16 5 13 16 21
25 19 9 -2 16 2 16 8 0 6 5 8 10 5 6 -3 10 -1 10 5 0 6 4 9 9 6 5 -3 8 -14 6
-24 -1 -9 0 -12 2 -5 3 7 22 10 56 8 l52 -4 -46 42 c-79 73 -142 119 -196 144
-29 14 -53 28 -53 31 0 4 14 16 30 27 16 11 30 26 30 33 0 6 5 12 11 12 5 0 7
5 4 10 -3 6 -1 10 6 10 7 0 10 3 6 6 -7 8 -67 -27 -67 -39 0 -5 -7 -7 -15 -3
-8 3 -15 1 -15 -4 0 -6 -3 -9 -7 -9 -23 4 -32 -3 -26 -18 6 -16 5 -17 -12 -3
-20 17 -54 15 -70 -5 -11 -14 -116 -49 -150 -50 -11 0 -25 4 -32 8 -15 11 -85
-11 -96 -29 -6 -10 -19 -12 -48 -8 -32 5 -39 4 -39 -10 0 -21 -47 -22 -70 -1
-28 25 -12 72 23 66 4 0 7 8 7 18 0 11 3 27 6 36 5 13 8 14 15 3 7 -10 9 -8
10 7 1 11 1 23 0 27 -1 12 50 59 58 53 5 -2 20 4 34 15 14 11 34 20 46 20 11
0 30 4 43 9 13 5 56 14 97 20 45 7 110 27 163 51 48 22 92 40 98 40 5 0 42 19
82 43 40 23 108 59 151 81 84 41 97 56 76 83 -12 14 -12 16 1 8 8 -5 38 -12
67 -15 50 -6 53 -5 61 20 4 14 8 41 7 62 -1 30 2 35 17 33 10 -2 18 1 18 6 0
6 5 7 12 3 6 -4 8 -3 4 4 -3 6 -18 9 -31 6 -18 -3 -25 0 -25 11 0 8 -7 15 -15
15 -12 0 -13 4 -5 19 13 25 13 31 -1 31 -5 0 -8 -4 -5 -9 5 -8 -15 -21 -34
-21 -4 0 -11 11 -14 25 -4 17 -11 23 -19 18 -7 -4 -5 2 3 12 11 14 12 19 3 22
-7 3 -13 12 -13 20 0 9 6 13 15 9 8 -3 15 -1 15 4 0 6 -4 10 -10 10 -5 0 -10
7 -10 16 0 9 -15 31 -34 50 -24 24 -32 40 -29 54 3 11 1 20 -5 20 -6 0 -9 -13
-7 -30 2 -16 0 -30 -5 -30 -6 0 -10 15 -10 34 0 36 19 53 38 34 8 -8 11 8 10
58 -1 51 -5 70 -16 75 -8 3 -16 18 -18 33 -2 16 -10 36 -18 45 -21 23 -20 32
2 24 15 -6 15 -5 2 11 -17 21 -22 46 -9 46 5 0 9 -6 9 -14 0 -8 5 -18 11 -22
20 -12 -1 40 -22 55 -10 7 -19 19 -19 25 0 6 4 5 9 -3 10 -15 31 -7 31 12 0 7
-4 6 -10 -3 -7 -11 -10 6 -9 55 1 39 -4 82 -10 98 -8 20 -8 27 2 27 9 0 9 2
-1 8 -7 5 -10 16 -7 24 4 9 1 19 -5 23 -8 5 -8 10 0 21 7 7 10 19 7 26 -2 7 0
21 4 30 7 12 3 21 -13 32 -31 22 -35 21 -57 -21z m2 -567 c4 -10 1 -13 -8 -9
-8 3 -12 9 -9 14 7 12 11 11 17 -5z m124 -28 c-3 -8 -6 -5 -6 6 -1 11 2 17 5
13 3 -3 4 -12 1 -19z m-138 -148 c5 -17 6 -28 1 -25 -4 3 -10 0 -12 -6 -2 -7
-4 4 -4 25 0 20 1 36 2 36 1 0 7 -14 13 -30z m268 -272 c-3 -7 -5 -2 -5 12 0
14 2 19 5 13 2 -7 2 -19 0 -25z m-436 -83 c14 5 17 3 13 -9 -3 -9 -10 -16 -15
-16 -5 0 -9 -7 -9 -15 0 -13 4 -14 20 -5 11 6 20 17 20 25 0 23 47 19 53 -5 4
-15 0 -20 -16 -20 -18 0 -19 -2 -7 -10 8 -5 11 -12 7 -16 -4 -4 -2 -13 5 -21
8 -11 7 -12 -5 -8 -8 4 -17 15 -20 26 -4 16 -11 19 -36 14 -27 -5 -31 -2 -32
17 -1 19 -3 17 -9 -7 -4 -16 -8 -22 -9 -12 0 9 -5 17 -11 17 -17 0 -11 18 9
25 11 3 18 13 16 23 -1 9 0 11 2 4 3 -8 12 -10 24 -7z m188 -7 c-1 -17 -2 -19
-6 -5 -2 9 -8 17 -13 17 -5 0 -7 -7 -4 -15 4 -9 0 -15 -10 -15 -19 0 -22 26
-3 33 26 11 37 6 36 -15z m-889 -3 c-6 -8 -9 -18 -6 -23 3 -5 -3 -21 -14 -35
-11 -14 -20 -28 -20 -31 0 -7 -52 -88 -61 -96 -3 -3 -12 -16 -19 -30 -7 -14
-40 -71 -74 -128 -33 -56 -66 -110 -71 -120 -31 -53 -70 -103 -73 -94 -3 9 55
111 69 122 8 6 85 140 127 221 16 31 46 82 66 113 20 31 36 59 36 62 0 11 33
54 42 54 6 0 5 -6 -2 -15z m830 -1 c0 -6 -7 -14 -15 -18 -10 -3 -15 1 -15 13
0 10 7 18 15 18 8 0 15 -6 15 -13z m-257 -21 c-7 -2 -19 -2 -25 0 -7 3 -2 5
12 5 14 0 19 -2 13 -5z m77 -45 c0 -6 -6 -5 -15 2 -8 7 -15 14 -15 16 0 2 7 1
15 -2 8 -4 15 -11 15 -16z m165 -8 c3 -6 -1 -7 -9 -4 -18 7 -21 14 -7 14 6 0
13 -4 16 -10z m-225 -21 c0 6 5 11 12 11 9 0 9 -3 0 -12 -7 -7 -12 -19 -12
-27 0 -10 7 -6 18 11 16 24 19 25 29 10 11 -15 13 -15 22 -2 6 8 11 10 11 5 0
-20 -40 -45 -71 -45 -26 0 -31 3 -26 20 3 11 1 20 -4 20 -5 0 -9 -5 -9 -12 0
-6 -2 -9 -5 -6 -3 3 -3 13 1 22 5 13 9 14 20 5 10 -8 14 -8 14 0z m-47 -46
c-7 -2 -19 -2 -25 0 -7 3 -2 5 12 5 14 0 19 -2 13 -5z m-218 -43 c-12 -19 -25
-10 -25 16 0 23 1 24 16 10 8 -9 12 -20 9 -26z m567 -495 c11 2 15 -2 11 -11
-10 -28 -44 -4 -42 31 1 20 1 20 7 -1 4 -12 14 -20 24 -19z m-47 15 c3 -5 1
-10 -4 -10 -6 0 -11 5 -11 10 0 6 2 10 4 10 3 0 8 -4 11 -10z m-215 -32 c0
-10 -36 7 -45 22 -4 6 5 5 19 -2 14 -6 26 -15 26 -20z m147 0 c-3 -8 -6 -5 -6
6 -1 11 2 17 5 13 3 -3 4 -12 1 -19z m-120 -23 c-4 -8 -11 -15 -17 -15 -6 0
-6 7 2 20 14 22 24 19 15 -5z m3 -165 c0 -5 -4 -10 -10 -10 -5 0 -10 5 -10 10
0 6 5 10 10 10 6 0 10 -4 10 -10z m50 0 c0 -5 -5 -10 -11 -10 -5 0 -7 5 -4 10
3 6 8 10 11 10 2 0 4 -4 4 -10z m-35 -50 c3 -5 1 -10 -4 -10 -6 0 -11 5 -11
10 0 6 2 10 4 10 3 0 8 -4 11 -10z"/>
<path d="M1100 970 c0 -5 5 -10 11 -10 5 0 7 5 4 10 -3 6 -8 10 -11 10 -2 0
-4 -4 -4 -10z"/>
<path d="M7 1941 c-4 -17 -3 -21 5 -13 5 5 8 16 6 23 -3 8 -7 3 -11 -10z"/>
<path d="M1140 1860 c0 -5 5 -10 11 -10 5 0 7 5 4 10 -3 6 -8 10 -11 10 -2 0
-4 -4 -4 -10z"/>
<path d="M2324 1838 c-18 -8 -20 -17 -17 -61 3 -29 9 -61 14 -72 5 -11 15 -38
23 -60 14 -38 14 -34 13 82 -1 68 -4 123 -7 122 -3 0 -14 -5 -26 -11z"/>
<path d="M7240 1820 c-9 -6 -10 -10 -3 -10 6 0 15 5 18 10 8 12 4 12 -15 0z"/>
<path d="M650 1810 c10 -6 11 -10 3 -10 -8 0 -13 -12 -12 -27 l1 -28 13 30
c14 32 11 45 -8 45 -7 0 -6 -4 3 -10z"/>
<path d="M7261 1780 c-1 -8 -5 -26 -7 -40 -3 -18 -2 -22 6 -14 7 7 10 24 7 40
-2 16 -5 22 -6 14z"/>
<path d="M6820 1750 c0 -5 5 -10 10 -10 6 0 10 5 10 10 0 6 -4 10 -10 10 -5 0
-10 -4 -10 -10z"/>
<path d="M586 1715 c-9 -26 -7 -32 5 -12 6 10 9 21 6 23 -2 3 -7 -2 -11 -11z"/>
<path d="M626 1705 c-9 -26 -7 -32 5 -12 6 10 9 21 6 23 -2 3 -7 -2 -11 -11z"/>
<path d="M2255 1642 c-5 -29 0 -51 21 -97 26 -56 28 -68 25 -172 l-3 -111 33
-17 32 -17 -6 113 c-4 63 -7 139 -8 169 l-1 55 -14 -32 c-8 -18 -16 -33 -18
-33 -2 0 -4 19 -4 43 0 37 -34 137 -46 137 -2 0 -7 -17 -11 -38z"/>
<path d="M6950 1669 c0 -5 11 -9 25 -9 14 0 25 2 25 4 0 2 -11 6 -25 8 -14 3
-25 1 -25 -3z"/>
<path d="M7045 1630 c-3 -5 -1 -10 4 -10 6 0 11 5 11 10 0 6 -2 10 -4 10 -3 0
-8 -4 -11 -10z"/>
<path d="M911 1608 c-8 -13 -15 -39 -16 -58 -1 -19 -5 -64 -9 -100 -10 -93 8
-55 29 62 19 105 18 130 -4 96z"/>
<path d="M671 1244 c0 -11 3 -14 6 -6 3 7 2 16 -1 19 -3 4 -6 -2 -5 -13z"/>
<path d="M2392 1240 c-15 -25 -15 -33 0 -28 6 2 13 14 15 26 4 27 1 27 -15 2z"/>
<path d="M3327 1218 c-4 -12 -4 -25 -1 -30 9 -14 31 -9 38 8 8 22 8 22 -13 33
-15 9 -20 7 -24 -11z"/>
<path d="M3447 1226 c-29 -23 1 -36 42 -19 27 11 31 17 20 24 -20 12 -41 11
-62 -5z"/>
<path d="M1460 1215 c-7 -8 -8 -15 -2 -15 5 0 15 7 22 15 7 8 8 15 2 15 -5 0
-15 -7 -22 -15z"/>
<path d="M652 1208 c-15 -15 -16 -48 -1 -48 6 0 8 7 5 17 -4 9 -1 20 6 24 7 4
10 10 7 13 -3 3 -11 0 -17 -6z"/>
<path d="M3584 1200 c-22 -9 -39 -28 -32 -35 9 -9 79 17 75 28 -5 15 -18 17
-43 7z"/>
<path d="M1440 1180 c0 -5 5 -10 11 -10 5 0 7 5 4 10 -3 6 -8 10 -11 10 -2 0
-4 -4 -4 -10z"/>
<path d="M640 1120 c0 -5 5 -10 10 -10 6 0 10 5 10 10 0 6 -4 10 -10 10 -5 0
-10 -4 -10 -10z"/>
<path d="M7 1086 c-4 -10 -1 -13 9 -9 15 6 19 23 5 23 -5 0 -11 -7 -14 -14z"/>
<path d="M7850 1076 c0 -14 4 -27 9 -31 5 -3 9 8 9 25 -1 36 -18 41 -18 6z"/>
<path d="M7908 1083 c7 -3 16 -2 19 1 4 3 -2 6 -13 5 -11 0 -14 -3 -6 -6z"/>
<path d="M3703 1058 c-18 -13 -33 -31 -33 -41 0 -17 3 -17 38 4 20 12 46 30
57 41 19 18 19 18 -5 18 -14 0 -40 -10 -57 -22z"/>
<path d="M1550 1041 c0 -14 5 -19 15 -14 17 6 15 25 -3 31 -7 2 -12 -5 -12
-17z"/>
<path d="M153 1040 c-13 -5 -23 -12 -23 -14 0 -3 7 -3 15 0 19 8 20 -10 1 -25
-11 -9 -15 -9 -18 0 -2 6 -28 -25 -57 -69 -31 -48 -50 -86 -45 -93 4 -7 3 -9
-3 -6 -16 10 -23 -17 -22 -81 0 -48 2 -54 12 -39 79 120 200 306 208 320 8 14
6 17 -18 16 -15 0 -38 -4 -50 -9z"/>
<path d="M2340 1018 c-14 -5 -36 -12 -50 -14 -49 -10 -34 -17 24 -11 62 6 75
12 60 26 -5 5 -20 5 -34 -1z"/>
<path d="M3855 1020 c-8 -13 4 -32 16 -25 12 8 12 35 0 35 -6 0 -13 -4 -16
-10z"/>
<path d="M2390 1013 c0 -4 29 -14 65 -21 81 -15 98 -15 93 0 -3 8 -24 13 -54
14 -27 0 -61 4 -76 8 -16 5 -28 4 -28 -1z"/>
<path d="M2577 996 c-17 -13 -16 -14 3 -19 15 -4 20 0 20 14 0 22 0 22 -23 5z"/>
<path d="M3752 982 c-18 -10 -39 -29 -46 -43 l-13 -25 51 25 c28 14 52 34 54
44 4 21 -4 21 -46 -1z"/>
<path d="M6415 960 c3 -5 12 -7 20 -3 21 7 19 13 -6 13 -11 0 -18 -4 -14 -10z"/>
<path d="M6970 956 c0 -9 7 -12 19 -9 10 3 22 0 25 -6 4 -6 35 -11 69 -11 39
-1 69 -6 81 -15 11 -8 31 -15 45 -15 24 1 25 1 6 12 -11 6 -25 16 -30 23 -13
16 -67 21 -118 10 -29 -6 -42 -4 -56 9 -22 20 -41 21 -41 2z"/>
<path d="M5543 938 l-52 -9 -6 -62 c-4 -34 -8 -102 -8 -150 -2 -105 4 -113 92
-122 31 -3 85 -10 121 -14 36 -5 67 -7 70 -4 5 5 -37 135 -62 188 -27 57 -48
117 -48 139 0 19 -27 46 -45 44 -5 0 -33 -5 -62 -10z"/>
<path d="M7318 944 c-63 -19 42 -37 212 -38 105 -1 115 1 118 18 3 15 0 17
-14 11 -27 -12 -177 -15 -190 -4 -14 11 -101 20 -126 13z"/>
<path d="M6928 933 c7 -3 16 -2 19 1 4 3 -2 6 -13 5 -11 0 -14 -3 -6 -6z"/>
<path d="M7800 924 c0 -9 -6 -14 -13 -11 -8 3 -40 8 -73 12 -47 6 -57 5 -47
-5 6 -7 9 -20 5 -29 -5 -14 -3 -14 11 -3 10 9 35 13 66 10 44 -3 51 0 60 20 7
14 7 22 1 22 -6 0 -10 -7 -10 -16z"/>
<path d="M3424 914 c3 -9 6 -18 6 -20 0 -6 56 -5 74 2 29 11 -3 34 -46 34 -33
0 -39 -3 -34 -16z"/>
<path d="M3805 910 c-22 -11 -57 -34 -77 -51 -40 -32 -51 -63 -20 -57 9 2 16
9 15 15 -1 6 10 13 25 17 33 7 106 68 101 84 -3 9 -16 6 -44 -8z"/>
<path d="M7934 884 c-17 -14 -17 -15 -1 -10 10 3 23 6 28 6 5 0 9 5 9 10 0 14
-13 12 -36 -6z"/>
<path d="M3497 843 c-30 -3 -37 -8 -33 -19 3 -9 6 -20 6 -26 0 -12 67 -4 105
14 54 24 12 41 -78 31z"/>
<path d="M3260 825 c0 -8 5 -15 10 -15 6 0 10 7 10 15 0 8 -4 15 -10 15 -5 0
-10 -7 -10 -15z"/>
<path d="M3630 789 c-19 -10 -61 -23 -92 -30 -52 -10 -58 -14 -58 -37 0 -23 2
-24 41 -18 61 10 123 41 139 70 17 34 12 36 -30 15z"/>
<path d="M3196 741 c-10 -10 -13 -22 -8 -25 5 -3 14 6 20 19 14 30 11 31 -12
6z"/>
<path d="M5273 635 c2 -5 10 -10 17 -10 7 0 15 5 17 10 2 6 -6 11 -17 11 -11
0 -19 -5 -17 -11z"/>
<path d="M1120 611 c0 -25 6 -27 13 -6 4 8 2 17 -3 20 -6 4 -10 -3 -10 -14z"/>
<path d="M5830 590 c11 -22 22 -40 23 -40 1 0 1 18 -1 40 -3 31 -8 40 -23 40
-19 0 -19 -1 1 -40z"/>
<path d="M3101 594 c-11 -15 -21 -30 -21 -35 0 -4 -3 -16 -6 -26 -4 -10 8 4
26 30 35 52 36 75 1 31z"/>
<path d="M5355 600 c3 -5 13 -10 21 -10 8 0 12 5 9 10 -3 6 -13 10 -21 10 -8
0 -12 -4 -9 -10z"/>
<path d="M5297 573 c-13 -12 -7 -33 8 -33 8 0 15 9 15 20 0 20 -11 26 -23 13z"/>
<path d="M5200 540 c0 -5 7 -10 15 -10 8 0 15 5 15 10 0 6 -7 10 -15 10 -8 0
-15 -4 -15 -10z"/>
<path d="M4691 516 c-19 -23 5 -28 30 -6 24 19 24 19 3 20 -12 0 -27 -6 -33
-14z"/>
<path d="M5265 520 c-7 -11 12 -50 25 -50 4 0 16 3 24 6 14 5 12 10 -9 30 -29
27 -31 28 -40 14z"/>
<path d="M5325 520 c-3 -5 1 -10 9 -10 9 0 16 5 16 10 0 6 -4 10 -9 10 -6 0
-13 -4 -16 -10z"/>
<path d="M5205 459 c34 -38 36 -43 21 -54 -23 -17 -20 -32 9 -51 24 -16 34
-44 16 -44 -4 0 -6 -10 -4 -23 4 -19 9 -22 47 -19 29 3 46 -1 55 -12 8 -9 10
-16 5 -16 -5 -1 11 -8 35 -16 31 -11 46 -13 54 -5 8 8 5 11 -10 11 -28 0 -53
10 -53 21 0 5 6 9 13 9 41 0 66 77 40 120 -21 37 -33 38 -33 5 0 -29 -7 -31
-31 -9 -15 13 -24 14 -48 6 -27 -10 -32 -8 -43 11 -7 12 -11 26 -10 31 9 31
-18 57 -72 70 l-29 7 38 -42z m195 -169 c0 -4 -7 -13 -16 -21 -13 -10 -17 -10
-25 2 -14 22 -11 27 16 27 14 0 25 -4 25 -8z"/>
<path d="M585 440 c-3 -5 -2 -10 4 -10 5 0 13 5 16 10 3 6 2 10 -4 10 -5 0
-13 -4 -16 -10z"/>
<path d="M4995 430 c3 -5 11 -10 16 -10 6 0 7 5 4 10 -3 6 -11 10 -16 10 -6 0
-7 -4 -4 -10z"/>
<path d="M5061 424 c0 -11 3 -14 6 -6 3 7 2 16 -1 19 -3 4 -6 -2 -5 -13z"/>
<path d="M7590 413 c-25 -2 -56 -6 -70 -9 l-25 -6 30 -14 30 -14 -27 4 c-20 2
-28 -1 -28 -11 0 -11 9 -13 38 -9 20 4 70 7 109 9 73 2 80 6 67 41 -6 16 -19
17 -124 9z"/>
<path d="M7818 394 c3 -16 1 -25 -5 -21 -5 3 -15 2 -22 -2 -7 -5 29 -6 80 -4
126 7 134 16 33 34 -32 5 -66 12 -75 15 -13 4 -15 -1 -11 -22z"/>
<path d="M7133 388 c-14 -23 63 -48 132 -43 31 2 41 7 43 23 3 19 -3 21 -83
24 -48 2 -89 0 -92 -4z"/>
<path d="M6862 384 c-7 -4 1 -15 23 -30 46 -31 57 -30 53 4 -2 22 -8 27 -33
29 -16 1 -36 -1 -43 -3z"/>
<path d="M5045 350 c-53 -11 -156 -47 -169 -60 -7 -7 19 -10 77 -11 48 -1 93
-2 100 -3 6 -1 13 9 15 21 2 12 12 25 22 28 10 3 21 12 24 20 6 17 -6 17 -69
5z"/>
<path d="M5156 346 c7 -19 38 -22 32 -3 -3 6 -12 13 -21 15 -12 2 -15 -1 -11
-12z"/>
<path d="M5500 340 c0 -9 64 -40 109 -55 31 -9 26 12 -6 29 -40 20 -103 36
-103 26z"/>
<path d="M7445 329 c-193 -10 -335 -16 -432 -18 l-72 -1 14 -34 c14 -34 11
-62 -14 -116 -14 -29 -123 -113 -184 -140 -23 -11 -34 -20 -24 -20 24 0 79 24
98 42 37 37 72 46 153 39 83 -6 104 -20 61 -39 -14 -6 -25 -8 -25 -4 0 4 -11
8 -25 8 -14 1 -25 -2 -25 -7 0 -5 10 -10 23 -11 31 -2 38 -3 70 -16 16 -7 52
-12 80 -11 l52 1 -40 13 -40 13 49 1 c43 1 48 3 43 20 -3 13 1 21 12 24 10 3
8 5 -7 6 -19 1 -22 -3 -17 -19 4 -12 2 -20 -5 -20 -6 0 -8 5 -4 11 4 7 0 9
-12 5 -43 -13 -83 -15 -89 -6 -4 6 11 10 39 10 25 0 46 4 46 8 0 15 52 34 63
23 5 -5 15 -7 22 -5 7 3 16 1 20 -5 3 -6 1 -11 -6 -11 -7 0 -5 -8 6 -20 10
-11 24 -20 32 -20 7 0 12 -6 11 -12 -2 -10 42 -13 192 -15 107 -1 189 2 181 6
-9 6 -10 11 -2 15 6 4 14 0 17 -8 5 -13 24 -16 103 -16 88 1 94 2 76 16 -12 9
-30 13 -45 9 -21 -4 -23 -3 -10 7 16 14 24 38 13 38 -14 0 -14 80 -1 85 35 11
108 13 102 3 -4 -6 -1 -9 7 -6 10 3 15 29 17 96 l3 92 -183 -2 c-101 0 -255
-5 -343 -9z"/>
<path d="M5112 299 c-7 -12 -12 -23 -10 -25 6 -6 48 26 48 37 0 17 -25 9 -38
-12z"/>
<path d="M5700 246 c0 -2 7 -6 15 -10 8 -3 15 -1 15 4 0 6 -7 10 -15 10 -8 0
-15 -2 -15 -4z"/>
<path d="M5201 186 c-35 -12 -81 -60 -81 -85 0 -8 -6 -11 -15 -7 -8 3 -15 1
-15 -4 0 -22 32 -8 67 30 21 22 41 40 46 40 16 0 6 -40 -18 -68 -13 -16 -22
-32 -18 -36 12 -11 54 -6 69 9 20 19 41 20 25 1 -9 -11 -2 -15 40 -20 38 -5
54 -4 60 6 14 21 11 25 -26 47 -19 11 -35 26 -35 34 0 13 -32 47 -55 59 -5 3
-25 0 -44 -6z"/>
<path d="M5780 192 c0 -9 111 -65 117 -59 5 6 -53 42 -90 56 -15 6 -27 7 -27
3z"/>
<path d="M2461 177 c2 -1 12 -9 22 -16 14 -12 17 -11 17 3 0 10 -8 16 -22 16
-12 0 -19 -1 -17 -3z"/>
<path d="M4898 173 c6 -2 18 -2 25 0 6 3 1 5 -13 5 -14 0 -19 -2 -12 -5z"/>
<path d="M5103 173 c-18 -7 -16 -23 2 -23 8 0 15 7 15 15 0 8 -1 15 -2 14 -2
0 -9 -3 -15 -6z"/>
<path d="M2362 163 c-12 -2 -20 -8 -17 -12 2 -5 -7 -7 -20 -5 -14 1 -25 -1
-25 -6 0 -4 -9 -6 -21 -3 -12 3 -24 0 -29 -6 -4 -7 -27 -14 -51 -15 -55 -4
-99 -15 -99 -27 0 -5 -11 -9 -24 -9 -13 0 -27 -6 -29 -12 -3 -8 -6 -6 -6 5 -1
16 -3 16 -25 2 -19 -13 -25 -13 -29 -3 -4 8 -6 7 -6 -5 -1 -9 -4 -16 -8 -15
-5 0 -15 -1 -23 -5 -8 -3 -21 -7 -29 -9 -8 -2 -15 -12 -17 -21 -3 -20 1 -21
27 -7 13 7 19 7 19 0 0 -6 39 -10 105 -10 88 0 105 3 114 17 5 10 13 15 17 11
3 -4 18 2 32 12 13 11 29 20 35 20 6 0 2 -7 -9 -15 -10 -8 -14 -15 -7 -15 6 0
15 5 18 10 5 8 11 7 21 -1 11 -9 15 -6 20 20 4 17 11 28 17 24 5 -3 16 2 23
12 8 10 16 16 20 13 9 -9 65 13 58 23 -3 5 2 6 10 3 9 -3 22 1 30 9 14 13 14
16 0 21 -17 6 -55 6 -92 -1z m-92 -83 c13 -11 20 -23 17 -27 -4 -3 -16 4 -27
17 -31 36 -26 41 10 10z m-220 -45 c0 -2 -9 -9 -20 -15 -12 -6 -20 -7 -20 -1
0 5 8 12 18 14 9 3 18 5 20 6 1 0 2 -1 2 -4z"/>
<path d="M4880 150 c-12 -7 -12 -12 -2 -22 9 -9 12 -9 12 1 0 7 4 9 10 6 6 -3
7 1 4 9 -7 19 -5 18 -24 6z"/>
<path d="M4545 126 c-20 -14 -29 -46 -14 -46 5 0 6 -12 3 -27 -7 -25 -6 -27
10 -14 22 18 31 8 11 -13 -15 -15 -14 -16 20 -16 27 0 38 5 45 23 11 28 45 59
90 83 52 27 11 30 -64 4 -66 -22 -96 -25 -96 -9 0 6 7 9 14 6 10 -4 13 -1 9 9
-6 17 -5 17 -28 0z"/>
<path d="M5640 120 c0 -5 5 -10 10 -10 6 0 10 5 10 10 0 6 -4 10 -10 10 -5 0
-10 -4 -10 -10z"/>
<path d="M5437 114 c-8 -8 1 -24 14 -24 5 0 9 7 9 15 0 15 -12 20 -23 9z"/>
<path d="M5952 98 c3 -7 15 -14 29 -16 23 -2 23 -2 5 13 -24 18 -39 20 -34 3z"/>
<path d="M4348 70 c-9 -17 -13 -30 -9 -30 12 0 41 35 41 48 0 21 -15 13 -32
-18z"/>
<path d="M4492 64 c-7 -8 -8 -14 -3 -14 10 0 25 19 20 25 -2 1 -10 -3 -17 -11z"/>
<path d="M4834 48 c-36 -40 -38 -48 -9 -48 15 0 24 4 20 10 -3 6 -2 10 4 10 5
0 13 -5 16 -10 3 -6 12 -10 18 -10 7 1 5 6 -5 13 -9 7 -18 23 -20 36 l-3 23
-21 -24z"/>
<path d="M5008 61 c-39 -8 -68 -26 -68 -43 0 -6 7 -8 15 -4 8 3 15 1 15 -4 0
-6 33 -10 74 -10 70 0 74 1 69 20 -6 22 -40 51 -58 49 -5 -1 -27 -5 -47 -8z"/>
<path d="M7905 43 c2 -10 4 -21 4 -25 1 -5 6 -8 12 -8 5 0 7 5 4 10 -3 6 -1
10 4 10 6 0 11 -7 11 -15 0 -8 4 -15 9 -15 6 0 6 12 -1 31 -8 23 -13 27 -19
17 -6 -10 -9 -10 -9 0 0 6 -4 12 -9 12 -5 0 -8 -8 -6 -17z"/>
<path d="M4410 39 c0 -5 5 -7 10 -4 6 3 10 8 10 11 0 2 -4 4 -10 4 -5 0 -10
-5 -10 -11z"/>
<path d="M5407 23 c5 -12 2 -15 -10 -10 -48 20 -53 20 -32 4 22 -18 115 -23
115 -7 0 6 -9 10 -19 10 -11 0 -23 4 -26 10 -11 17 -35 12 -28 -7z"/>
<path d="M5727 34 c-3 -3 -3 -12 0 -20 3 -9 21 -14 54 -14 40 0 47 2 38 13 -7
7 -19 13 -28 13 -9 0 -25 3 -37 7 -11 4 -23 4 -27 1z"/>
<path d="M1825 19 c-9 -14 -2 -20 14 -10 8 6 9 11 3 15 -6 3 -14 1 -17 -5z"/>
<path d="M5590 19 c0 -5 5 -7 10 -4 6 3 10 8 10 11 0 2 -4 4 -10 4 -5 0 -10
-5 -10 -11z"/>
<path d="M1865 10 c3 -5 8 -10 11 -10 2 0 4 5 4 10 0 6 -5 10 -11 10 -5 0 -7
-4 -4 -10z"/>
<path d="M6953 3 c9 -2 23 -2 30 0 6 3 -1 5 -18 5 -16 0 -22 -2 -12 -5z"/>
</g>
</svg>
